<?xml version="1.0" standalone="no"?>
<!DOCTYPE svg PUBLIC "-//W3C//DTD SVG 1.1//EN" "http://www.w3.org/Graphics/SVG/1.1/DTD/svg11.dtd" >
<svg xmlns="http://www.w3.org/2000/svg">
<metadata></metadata>
<defs>
<font id="aw_conqueror_didot_lightlight" horiz-adv-x="1024" >
<font-face units-per-em="2048" ascent="1559" descent="-489" />
<missing-glyph horiz-adv-x="512" />
<glyph unicode="&#xfb01;" horiz-adv-x="1101" d="M59 911v9h146v165q0 137 119 231.5t297 94.5q129 0 232 -62t103 -151q0 -45 -29.5 -73.5t-78.5 -28.5q-42 0 -72.5 29.5t-30.5 72.5q0 35 23 73t23 52q0 37 -50 58.5t-120 21.5q-122 0 -184 -51.5t-62 -171.5v-260h581v-639q0 -69 1 -112.5t6.5 -75t10 -47t18 -24.5 t24 -11t33.5 -3l41 -2v-6h-437v6l41 2q28 1 39.5 4.5t25 16t17.5 43t7 79t3 130.5v358q0 82 -3 130.5t-7 79.5t-17 43.5t-25.5 15.5t-39.5 3h-319v-630q0 -82 3 -130.5t7 -79t17.5 -43t25 -16t39.5 -4.5l41 -2v-6h-436v6l41 2q28 1 39.5 4.5t25 16t17.5 43t7 79t3 130.5v630 h-146z" />
<glyph unicode="&#xfb02;" horiz-adv-x="1101" d="M59 911v9h146v165q0 138 107 232t268 94q79 0 149 -31h211v-1099q0 -82 3 -130.5t7 -79t17.5 -43t25 -16t39.5 -4.5l41 -2v-6h-436v6l41 2q28 1 39.5 4.5t25 16t17.5 43t7 79t3 130.5v630h-395v-630q0 -82 3 -130.5t7 -79t17.5 -43t25 -16t39.5 -4.5l41 -2v-6h-436v6 l41 2q28 1 39.5 4.5t25 16t17.5 43t7 79t3 130.5v630h-146zM375 920h395v204h-14q-39 0 -65.5 27t-26.5 68q0 32 20.5 66t20.5 46q0 32 -34.5 52t-90.5 20q-105 0 -155 -51t-50 -172v-260z" />
<glyph unicode="&#xfb03;" horiz-adv-x="1665" d="M59 911v9h146v165q0 138 107 232t268 94q90 0 166 -35t106 -94q57 60 144 94.5t190 34.5q129 0 232.5 -62t103.5 -151q0 -45 -30 -73.5t-79 -28.5q-42 0 -72 29t-30 73q0 35 22.5 73t22.5 52q0 37 -50 58.5t-120 21.5q-122 0 -184 -51.5t-62 -171.5v-260h582v-639 q0 -82 3 -130.5t7 -79t17.5 -43t25 -16t39.5 -4.5l41 -2v-6h-436v6l41 2q28 1 39.5 4.5t25 16t17.5 43t7 79t3 130.5v358q0 82 -3 130.5t-7 79.5t-17 43.5t-25.5 15.5t-39.5 3h-320v-630q0 -82 3 -130.5t7 -79t17.5 -43t25 -16t39.5 -4.5l41 -2v-6h-436v6l41 2 q28 1 39.5 4.5t25 16t17.5 43t7 79t3 130.5v630h-395v-630q0 -82 3 -130.5t7 -79t17.5 -43t25 -16t39.5 -4.5l41 -2v-6h-436v6l41 2q28 1 39.5 4.5t25 16t17.5 43t7 79t3 130.5v630h-146zM375 920h395v165q0 25 2 39q-39 0 -66.5 27t-27.5 68q0 32 20.5 66t20.5 46 q0 31 -42.5 51.5t-96.5 20.5q-105 0 -155 -51t-50 -172v-260z" />
<glyph unicode="&#xfb04;" horiz-adv-x="1665" d="M55 911v9h146v165q0 138 106.5 232t267.5 94q86 0 161 -33.5t108 -89.5q50 58 127.5 90.5t169.5 32.5q79 0 149 -31h211v-1099q0 -82 3 -130.5t7 -79t17.5 -43t25 -16t39.5 -4.5l41 -2v-6h-436v6l41 2q28 1 39.5 4.5t25 16t17.5 43t7 79t3 130.5v630h-395v-630 q0 -82 3 -130.5t7 -79t17.5 -43t25 -16t39.5 -4.5l41 -2v-6h-436v6l41 2q28 1 39.5 4.5t25 16t17.5 43t7 79t3 130.5v630h-395v-630q0 -82 3 -130.5t7 -79t17.5 -43t25 -16t39.5 -4.5l41 -2v-6h-436v6l41 2q28 1 39.5 4.5t25 16t17.5 43t7 79t3 130.5v630h-146zM371 920h395 v165q0 25 2 39q-39 0 -66.5 27t-27.5 68q0 32 20.5 66t20.5 46q0 31 -43 51.5t-97 20.5q-105 0 -154.5 -51t-49.5 -172v-260zM936 920h395v204h-14q-39 0 -65.5 27t-26.5 68q0 32 20.5 66t20.5 46q0 32 -34.5 52t-90.5 20q-105 0 -155 -51t-50 -172v-260z" />
<glyph horiz-adv-x="0" />
<glyph horiz-adv-x="0" />
<glyph horiz-adv-x="682" />
<glyph unicode="&#xd;" horiz-adv-x="512" />
<glyph unicode=" "  horiz-adv-x="512" />
<glyph unicode="&#x09;" horiz-adv-x="512" />
<glyph unicode="&#xa0;" horiz-adv-x="512" />
<glyph unicode="!" horiz-adv-x="512" d="M154 115q0 49 28.5 79.5t73.5 30.5q46 0 75 -30.5t29 -79.5q0 -51 -29 -83t-73 -32q-46 0 -75 31.5t-29 83.5zM158 1284q0 42 25.5 69t70.5 27t71.5 -27t26.5 -69q0 -98 -23.5 -230.5t-47 -276.5t-23.5 -269v-125h-8v125q0 156 -46 409.5t-46 366.5z" />
<glyph unicode="&#x22;" horiz-adv-x="839" d="M193 1298q-6 35 12.5 58.5t48.5 23.5q33 0 50 -23t11 -59l-55 -352h-8zM522 1298q-6 34 13 58t49 24q33 0 50 -23t11 -59l-55 -352h-8z" />
<glyph unicode="#" horiz-adv-x="1105" d="M129 264v96h229l60 293h-289v99h309l56 262h10l-55 -262h319l55 262h11l-56 -262h197v-99h-217l-62 -293h279v-96h-297l-55 -264h-11l56 264h-320l-55 -264h-10l55 264h-209zM367 360h321l60 293h-320z" />
<glyph unicode="$" horiz-adv-x="1040" d="M123 168q0 45 29.5 73.5t78.5 28.5q42 0 72.5 -29.5t30.5 -72.5q0 -36 -22.5 -73t-22.5 -48q0 -24 63.5 -43.5t141.5 -21.5v442q-45 13 -75 22.5t-71 26t-67.5 33t-56 42t-46.5 54.5t-28 69t-11 87q0 127 101 202t254 78v207h8v-207q134 0 249 -60.5t115 -135.5 q0 -45 -29.5 -74t-78.5 -29q-42 0 -72.5 29.5t-30.5 73.5q0 36 22.5 73t22.5 48q0 26 -58 46.5t-140 20.5v-424q152 -44 202 -66q142 -63 175 -178q12 -40 12 -88q0 -92 -55.5 -161.5t-143 -104t-190.5 -35.5v-204h-8v204q-151 1 -261 59.5t-110 135.5zM229 846 q0 -53 20 -92.5t61 -67t81.5 -44t102.5 -34.5v422q-128 -1 -196.5 -53.5t-68.5 -130.5zM502 -18q51 1 99 11.5t95 33t76 66.5t29 104q0 30 -9.5 55.5t-22 44t-39 36t-45 27.5t-57.5 23.5t-59.5 19.5t-66.5 19v-440z" />
<glyph unicode="%" horiz-adv-x="1671" d="M82 1034q0 153 99 263t263 110t263.5 -110t99.5 -263q0 -99 -42.5 -183.5t-127 -138t-193.5 -53.5t-193.5 53.5t-126.5 138t-42 183.5zM238 1032q0 -75 10 -137t32.5 -115t64 -82.5t99.5 -29.5t99.5 29.5t64.5 82t33 114.5t10 138t-10 138.5t-33 115.5t-64.5 83t-99.5 30 t-99.5 -29.5t-64 -82.5t-32.5 -115.5t-10 -139.5zM395 0l858 1380h21l-858 -1380h-21zM862 346q0 99 42.5 183.5t127 138t193.5 53.5t193.5 -53.5t126.5 -138t42 -183.5q0 -153 -99 -263t-263 -110t-263.5 110t-99.5 263zM1018 348q0 -76 10 -138t33 -115.5t64.5 -83 t99.5 -29.5t99.5 29.5t64.5 82t33 115t10 139.5q0 75 -10 137t-33 115t-64.5 83t-99.5 30t-99.5 -29.5t-64.5 -82.5t-33 -115t-10 -138z" />
<glyph unicode="&#x26;" horiz-adv-x="1650" d="M164 383q0 316 432 379q-170 28 -269.5 104.5t-99.5 200.5q0 113 62.5 191t165 113.5t237.5 35.5q159 0 248.5 -63t89.5 -146q0 -45 -29.5 -73.5t-78.5 -28.5q-42 0 -72.5 29.5t-30.5 72.5q0 36 22.5 73t22.5 48q0 31 -40.5 55.5t-131.5 24.5q-131 0 -195.5 -93 t-64.5 -241q0 -34 0.5 -52.5t2 -47.5t4.5 -44.5t9 -38t15.5 -35t22.5 -28t31 -23.5t41 -16t52.5 -11t65.5 -3h125v-8h-125q-171 0 -239 -93t-68 -282q0 -86 20.5 -156.5t63 -126.5t116 -87t172.5 -31q103 0 203.5 34.5t182 95.5t132 155.5t50.5 203.5q0 92 -35 182 q-23 -8 -64.5 -21.5t-64 -20.5t-57.5 -19.5t-54 -21t-44.5 -20.5t-39.5 -22.5t-28 -24t-19.5 -27.5t-5.5 -30q0 -30 14 -46.5t37 -16.5q21 0 55 26.5t58 26.5q29 0 45 -20t16 -51q0 -28 -20 -46t-51 -18q-63 0 -115.5 53.5t-52.5 128.5q0 47 19 85.5t47.5 65.5t78.5 53 t94 42.5t113 38.5q74 24 116.5 39.5t86 34.5t64.5 36t34.5 39t13.5 48q0 34 -18 59t-43 25q-21 0 -46 -27t-52 -27q-32 0 -54 20t-22 52t19 54t50 22q67 0 123 -65t56 -148q0 -100 -74 -165.5t-207 -109.5q39 -93 39 -188q0 -121 -45.5 -216.5t-125.5 -155.5t-184 -91 t-225 -31q-132 0 -236 23.5t-181 72t-118.5 128t-41.5 186.5z" />
<glyph unicode="'" horiz-adv-x="512" d="M193 1298q-6 35 12.5 58.5t48.5 23.5q33 0 50 -23t11 -59l-55 -352h-8z" />
<glyph unicode="(" horiz-adv-x="628" d="M94 477q0 146 31 277.5t79.5 227.5t115.5 176.5t133 132.5t137 89h8q-75 -50 -137 -127t-112 -186t-77.5 -260t-27.5 -330t27.5 -330.5t77.5 -260.5t112 -186t137 -126h-8q-70 37 -135 89t-132 133t-116.5 176.5t-81 227t-31.5 277.5z" />
<glyph unicode=")" horiz-adv-x="628" d="M31 -426q75 50 137 127t112 186t77.5 260t27.5 330t-27.5 330.5t-77.5 260.5t-112 186t-137 126h8q70 -37 135 -89t132 -133t116.5 -176.5t81 -227t31.5 -277.5t-31 -277.5t-79.5 -227.5t-115.5 -176.5t-133 -132.5t-137 -89h-8z" />
<glyph unicode="*" horiz-adv-x="878" d="M90 1077l43 135l299 -157l-65 329h143l-66 -329l299 157l43 -135l-340 -39l265 -250l-119 -81l-154 317l-153 -317l-119 81l264 250z" />
<glyph unicode="+" d="M41 461v112h414v416h112v-416h416v-112h-416v-414h-112v414h-414z" />
<glyph unicode="," horiz-adv-x="512" d="M115 -195q113 0 173 50t60 139q0 59 -49 59q-14 0 -31 -5t-28 -5q-44 0 -69.5 23.5t-25.5 60.5q0 44 25 71t70 27q54 0 93.5 -48.5t39.5 -151.5q0 -45 -13 -83t-41 -72t-80.5 -53.5t-123.5 -19.5v8z" />
<glyph unicode="-" horiz-adv-x="512" d="M41 416v121h430v-121h-430z" />
<glyph unicode="." horiz-adv-x="512" d="M160 115q0 49 28.5 79.5t73.5 30.5q46 0 75.5 -30.5t29.5 -79.5q0 -51 -29 -83t-74 -32q-46 0 -75 31.5t-29 83.5z" />
<glyph unicode="/" horiz-adv-x="688" d="M57 0l551 1380h21l-551 -1380h-21z" />
<glyph unicode="0" horiz-adv-x="1183" d="M82 508q0 105 34.5 201t98 169.5t161.5 117.5t216 44t216 -44t161.5 -117.5t98 -169.5t34.5 -201q0 -84 -21.5 -162.5t-65 -146t-103.5 -118t-142.5 -79.5t-177.5 -29t-177.5 29t-142.5 79.5t-103.5 118t-65 146t-21.5 162.5zM287 506q0 -524 305 -524q86 0 148 43 t95 119.5t47.5 165t14.5 196.5q0 85 -8.5 158t-29.5 142.5t-54.5 118t-88 78t-124.5 29.5q-305 0 -305 -526z" />
<glyph unicode="1" horiz-adv-x="587" d="M51 0v6l62 2q28 1 39.5 4.5t25 16t17.5 43t7 79t3 130.5v479q0 82 -3 130.5t-7 78.5t-17.5 42.5t-25 16t-39.5 4.5l-62 2v6h486v-6l-62 -2q-28 -1 -39.5 -4.5t-25 -16t-17.5 -42.5t-7 -78.5t-3 -130.5v-479q0 -82 3 -130.5t7 -79t17.5 -43t25 -16t39.5 -4.5l62 -2v-6 h-486z" />
<glyph unicode="2" horiz-adv-x="1136" d="M74 0v18l325 211q69 44 119.5 87t81.5 86t49.5 78t26.5 80.5t10 75t2 79.5q0 317 -227 317q-85 0 -125.5 -25.5t-40.5 -56.5q0 -12 22.5 -49t22.5 -72q0 -44 -30 -73t-72 -29q-49 0 -79 28.5t-30 73.5q0 88 94.5 149.5t237.5 61.5q117 0 213 -35t157.5 -109.5 t61.5 -176.5q0 -36 -8.5 -70t-20 -62t-36.5 -59.5t-45.5 -54t-60.5 -53.5t-67 -50.5t-79.5 -52.5t-84 -52t-95.5 -56.5t-99 -58.5h408q82 0 130.5 3t78.5 7t42.5 17.5t16 25t4.5 39.5l2 41h6v-283h-911z" />
<glyph unicode="3" horiz-adv-x="1134" d="M80 -184q0 45 29.5 73.5t78.5 28.5q42 0 72.5 -29.5t30.5 -72.5q0 -36 -22.5 -73t-22.5 -48q0 -19 14.5 -35.5t61 -30.5t120.5 -14q320 0 320 391q0 187 -67.5 276t-239.5 89h-187v8h187q40 0 72 5t56 12.5t42.5 23t30.5 28.5t20.5 37.5t12.5 41.5t6 50t2.5 52.5 t0.5 58.5q0 149 -65 246.5t-195 97.5q-91 0 -131.5 -24.5t-40.5 -55.5q0 -11 22.5 -48t22.5 -73q0 -44 -30 -73t-72 -29q-49 0 -79 28.5t-30 73.5q0 83 89.5 146t248.5 63q134 0 237 -38t165.5 -118.5t62.5 -193.5q0 -125 -100.5 -206.5t-267.5 -108.5q210 -31 321 -119 t111 -250q0 -98 -41.5 -175.5t-114.5 -125.5t-166.5 -73t-202.5 -25q-175 0 -268.5 62t-93.5 147z" />
<glyph unicode="4" horiz-adv-x="1185" d="M88 90v8l731 942h29v-942h227v-8h-227v-457h-174v457h-586zM98 98h576v740z" />
<glyph unicode="5" horiz-adv-x="1077" d="M98 -184q0 45 30 73.5t79 28.5q42 0 72 -29t30 -73q0 -36 -22.5 -73t-22.5 -48q0 -19 14.5 -35.5t61.5 -30.5t121 -14q162 0 236.5 107.5t74.5 297.5q0 54 -9 109t-31 111.5t-54.5 99.5t-84.5 70.5t-116 27.5q-59 0 -110.5 -13t-82 -27.5t-94.5 -49.5l-8 4v662h361 q132 0 196.5 10t85 28.5t25.5 59.5l6 41h6l-37 -285q-146 15 -338 15h-297v-529q51 29 72.5 40.5t64.5 29.5t85 24.5t94 6.5q207 0 339 -118.5t132 -316.5q0 -126 -72.5 -221.5t-188.5 -143.5t-255 -48q-175 0 -269 62.5t-94 146.5z" />
<glyph unicode="6" horiz-adv-x="1230" d="M133 618q0 114 15.5 220t56 212t101.5 183t160 125.5t224 48.5q158 0 253 -64.5t95 -140.5q0 -40 -27 -66t-71 -26q-37 0 -64.5 26.5t-27.5 65.5q0 32 20.5 66t20.5 45q0 16 -20.5 35t-68.5 35t-110 16q-70 0 -124.5 -23t-92 -69t-63.5 -104.5t-41.5 -139t-22.5 -162 t-10 -184.5q66 73 151 110t177 37q194 0 314 -116.5t120 -305.5q0 -206 -134.5 -337.5t-340.5 -131.5q-103 0 -186.5 34.5t-139.5 94t-93.5 142.5t-54 176t-16.5 198zM336 569q0 -88 8 -167t28.5 -158t52 -136t83.5 -92.5t119 -35.5q266 0 266 444q0 74 -6 133t-22.5 114 t-43 92t-70 59t-100.5 22q-93 0 -168.5 -32.5t-146.5 -109.5v-133z" />
<glyph unicode="7" horiz-adv-x="1030" d="M86 737v277h856v-29l-248 -479q-91 -176 -119 -347t-28 -427q0 -42 -29 -69.5t-74 -27.5q-39 0 -66.5 28t-27.5 69q0 87 20.5 172t59.5 164.5t76.5 144t91 150.5t84.5 145l195 364l-510 -2q-82 0 -130.5 -3t-79 -7t-43 -17.5t-16 -25t-4.5 -39.5l-2 -41h-6z" />
<glyph unicode="8" horiz-adv-x="1224" d="M123 369q0 67 23.5 125.5t71.5 107.5t127 83.5t183 47.5q-87 8 -157 39t-113.5 76t-66.5 97t-23 106q0 109 63 192t161.5 123.5t215.5 40.5q87 0 166 -24t140.5 -68.5t98 -112.5t36.5 -151q0 -116 -84 -202t-267 -116q204 -28 304 -126.5t100 -237.5q0 -120 -68 -211.5 t-179.5 -138t-246.5 -46.5t-244.5 46.5t-175 137.5t-65.5 212zM322 346q0 -162 73 -263t211 -101t214.5 101.5t76.5 262.5q0 84 -13.5 149.5t-44.5 120t-89.5 84t-141.5 29.5q-77 0 -134 -29.5t-89.5 -83.5t-47.5 -120.5t-15 -149.5zM369 1075q0 -188 51 -263t190 -75 q140 0 192 75.5t52 262.5q0 163 -56.5 243.5t-187.5 80.5q-130 0 -185.5 -80.5t-55.5 -243.5z" />
<glyph unicode="9" horiz-adv-x="1230" d="M133 571q0 206 134.5 337.5t340.5 131.5q103 0 186.5 -34.5t139.5 -94t93.5 -142.5t54 -176t16.5 -198q0 -94 -11.5 -183t-36 -180t-68.5 -166t-103.5 -134t-146 -92t-191.5 -33q-158 0 -253 64.5t-95 140.5q0 40 27 66t71 26q37 0 64.5 -26.5t27.5 -65.5 q0 -32 -20.5 -66t-20.5 -45q0 -16 20.5 -35t68.5 -35t110 -16q83 0 144.5 35t99.5 93.5t62 148.5t33.5 185t12.5 218q-131 -145 -326 -145q-194 0 -314 116t-120 305zM338 590q0 -74 6 -133t22.5 -114t43 -92t70 -59t100.5 -22q92 0 167 32t146 107q2 45 2 135q0 88 -8 167 t-28.5 158.5t-52 136.5t-83.5 92.5t-119 35.5q-266 0 -266 -444z" />
<glyph unicode=":" horiz-adv-x="512" d="M156 115q0 49 28.5 79.5t73.5 30.5q46 0 75 -30.5t29 -79.5q0 -51 -29 -83t-73 -32q-46 0 -75 31.5t-29 83.5zM156 809q0 49 28.5 80t73.5 31q46 0 75 -31t29 -80q0 -51 -29 -83t-73 -32q-46 0 -75 31.5t-29 83.5z" />
<glyph unicode=";" horiz-adv-x="512" d="M115 -193q113 0 173 50t60 139q0 59 -49 59q-14 0 -31 -5t-28 -5q-44 0 -69.5 23.5t-25.5 60.5q0 44 25 71t70 27q54 0 93.5 -48.5t39.5 -151.5q0 -45 -13 -83t-41 -72t-80.5 -53.5t-123.5 -19.5v8zM145 807q0 49 29 80t74 31q46 0 75 -31t29 -80q0 -51 -29 -83t-73 -32 q-46 0 -75.5 31.5t-29.5 83.5z" />
<glyph unicode="&#x3c;" d="M20 -205v533h697v-287h-185v102h-327v-163h799v-185h-984zM20 389v553h185v-184h799v-185h-799v-184h-185zM20 1004v430h185v-246h307v205h184v-205h308v-184h-984z" />
<glyph unicode="=" d="M41 256v113h942v-113h-942zM41 666v112h942v-112h-942z" />
<glyph unicode="&#x3e;" d="M20 -205v533h697v-287h-185v102h-327v-163h799v-185h-984zM20 389v553h185v-184h799v-185h-799v-184h-185zM20 1004v430h185v-246h307v205h184v-205h308v-184h-984z" />
<glyph unicode="?" horiz-adv-x="899" d="M41 1196q0 87 96.5 149t239.5 62q60 0 118 -12.5t112 -40t94.5 -66.5t65 -97t24.5 -128q0 -71 -27 -129.5t-84.5 -109t-123.5 -89.5t-167 -88q-66 -31 -92.5 -60.5t-26.5 -72.5q0 -59 48 -89t116 -30h23v-8h-23q-41 0 -78 10.5t-66.5 40.5t-29.5 76q0 45 29 76.5t98 64.5 q64 31 106 76t61 101.5t25.5 107t6.5 117.5q0 342 -230 342q-71 0 -110 -26.5t-39 -55.5q0 -11 22.5 -48t22.5 -73q0 -44 -30 -73t-72 -29q-49 0 -79 28.5t-30 73.5zM264 115q0 49 29 79.5t74 30.5q46 0 75 -30.5t29 -79.5q0 -51 -29 -83t-73 -32q-46 0 -75.5 31.5 t-29.5 83.5z" />
<glyph unicode="@" horiz-adv-x="1605" d="M127 485q0 120 28 231t85.5 207t139 167.5t196 112t249.5 40.5q206 0 360.5 -89.5t236 -249.5t81.5 -369q0 -193 -80.5 -321t-195.5 -128q-171 0 -215 133q-90 -147 -254 -147q-140 0 -226 62.5t-86 174.5q0 223 342 223q122 0 220 -45v252q0 96 -51.5 147.5t-151.5 51.5 q-139 0 -139 -51q0 -11 20.5 -45t20.5 -66q0 -39 -28 -65.5t-67 -26.5q-42 0 -69 26t-27 66q0 73 76 121.5t211 48.5q69 0 132 -18t114 -52.5t81.5 -91.5t30.5 -129v-309q0 -137 16.5 -193.5t69.5 -56.5q28 0 57.5 14.5t58.5 48.5t52 83t37 124t14 166q0 140 -37.5 257.5 t-100 198.5t-145.5 137.5t-173.5 83t-184.5 26.5q-131 0 -242 -47t-195.5 -138.5t-132.5 -236.5t-48 -330q0 -164 41 -300t120 -237t203 -156.5t283 -55.5q157 0 273 45t214 137l7 -8q-99 -95 -219 -139.5t-283 -44.5q-172 0 -309.5 56.5t-226.5 158.5t-136 240.5t-47 305.5 zM618 299q0 -203 189 -203q60 0 115 37.5t86 97.5v246q-98 45 -195 45q-38 0 -70 -10t-61.5 -33t-46.5 -69t-17 -111z" />
<glyph unicode="A" horiz-adv-x="1382" d="M10 0v6l23 2q47 5 77 30.5t79 123.5t130 309l357 930h22l432 -1057q39 -96 62.5 -148.5t44.5 -93.5t39 -57.5t35.5 -25t44.5 -11.5l16 -2v-6h-489v6l53 2q75 2 84 48q1 6 1 15q0 48 -44 165q-9 25 -37 98l-92 239h-481l-39 -102q-60 -154 -60 -299q0 -77 24 -118.5 t91 -45.5l43 -2v-6h-416zM371 582h473l-238 616z" />
<glyph unicode="B" horiz-adv-x="1396" d="M63 0v6l43 2q33 1 51 7t33.5 22t22 51.5t9.5 88t3 140.5v746q0 88 -3 140.5t-9.5 88t-22 51.5t-33.5 22t-51 7l-43 2v6h621q136 0 240 -34t168.5 -109.5t64.5 -185.5q0 -61 -25.5 -113t-66.5 -88t-98 -65t-115 -46.5t-123 -29.5q69 -8 131 -21.5t133 -41.5t121.5 -66.5 t84.5 -100.5t34 -139q0 -118 -73 -196t-194 -111t-288 -33h-615zM412 317q0 -77 0.5 -119.5t4.5 -82.5t9 -57t17 -30.5t26.5 -16.5t38.5 -3h170q166 0 257 81.5t91 264.5q0 168 -90 259.5t-268 91.5h-256v-388zM412 713h254q127 0 205.5 84t78.5 254q0 159 -77 240t-189 81 h-176q-24 0 -38.5 -3t-26.5 -16.5t-17 -30.5t-9 -57t-4.5 -82.5t-0.5 -119.5v-350z" />
<glyph unicode="C" horiz-adv-x="1396" d="M113 688q0 112 25.5 216.5t78.5 196t128 159.5t181 107.5t230 39.5q133 0 239 -70q40 -28 66 -28q46 0 127 98h4v-397h-6l-23 69q-45 140 -148.5 230t-254.5 90q-80 0 -146.5 -27.5t-113.5 -78t-81.5 -116t-55 -146.5t-30 -165t-9.5 -176q0 -111 13.5 -210t45.5 -191.5 t80.5 -159.5t124.5 -107t172 -40q93 0 173 39t133 101t86.5 121.5t51.5 118.5l23 70h6v-459h-4q-88 113 -148 113q-26 0 -73 -33q-119 -80 -252 -80q-154 0 -279 60t-203 161t-119.5 228t-41.5 266z" />
<glyph unicode="D" horiz-adv-x="1519" d="M25 0v6l43 2q54 2 76.5 21.5t32 81t9.5 206.5v746q0 145 -9.5 206.5t-32 81t-76.5 21.5l-43 2v6h671q165 0 298.5 -54.5t218.5 -148.5t130.5 -218t45.5 -267q0 -114 -29.5 -217.5t-88 -190t-140.5 -150t-193 -99t-240 -35.5h-673zM373 317q0 -77 0.5 -119.5t4.5 -82.5 t9 -57t17 -30.5t26.5 -16.5t38.5 -3h227q125 0 220.5 57t151 154.5t83 216t27.5 254.5q0 110 -19 210t-59 186.5t-96.5 150t-135.5 99.5t-172 36h-227q-24 0 -38.5 -3t-26.5 -16.5t-17 -30.5t-9 -57t-4.5 -82.5t-0.5 -119.5v-746z" />
<glyph unicode="E" horiz-adv-x="1282" d="M63 0v6l43 2q33 1 51 7t33.5 22t22 51.5t9.5 88t3 140.5v746q0 88 -3 140.5t-9.5 88t-22 51.5t-33.5 22t-51 7l-43 2v6h1004v-370h-6l-23 69q-25 77 -59.5 131.5t-70.5 85.5t-85.5 48.5t-94 22.5t-107.5 5h-113q-24 0 -38.5 -3t-26.5 -16.5t-17 -30.5t-9 -57t-4.5 -82.5 t-0.5 -119.5v-350h116q36 0 61 2.5t57.5 13t55.5 29.5t44.5 54t35.5 85l13 45h6v-467h-6l-13 45q-17 61 -44 100.5t-64.5 57t-69 22.5t-76.5 5h-116v-388q0 -77 0.5 -119.5t4.5 -82.5t9 -57t17 -30.5t26.5 -16.5t38.5 -3h154q66 0 111.5 6.5t92 27.5t81 59.5t68.5 102.5 t64 158l23 70h6v-432h-1045z" />
<glyph unicode="F" horiz-adv-x="1251" d="M63 0v6l43 2q33 1 51 7t33.5 22t22 51.5t9.5 88t3 140.5v746q0 88 -3 140.5t-9.5 88t-22 51.5t-33.5 22t-51 7l-43 2v6h1045v-411h-6l-23 69q-22 67 -46.5 118.5t-48.5 87t-55 60t-57 37.5t-64.5 20.5t-68.5 9t-77 1.5h-154q-24 0 -38.5 -3t-26.5 -16.5t-17 -30.5t-9 -57 t-4.5 -82.5t-0.5 -119.5v-391h157q36 0 61 2.5t57.5 13t55.5 29.5t44.5 54t35.5 85l13 45h6v-508h-6l-13 45q-17 61 -39.5 104t-45 66t-53.5 36t-56 16.5t-60 3.5h-157v-347q0 -76 1.5 -120.5t9.5 -82t17.5 -54.5t33 -30t48.5 -16.5t70 -5.5l43 -2v-6h-572z" />
<glyph unicode="G" horiz-adv-x="1421" d="M92 688q0 112 25.5 216.5t78.5 196t128 159.5t181 107.5t230 39.5q134 0 240 -70q40 -28 65 -28q46 0 127 98h4v-397h-6l-22 69q-45 139 -149 229.5t-255 90.5q-80 0 -146.5 -27.5t-113.5 -78t-81.5 -116t-55 -146.5t-30 -165t-9.5 -176q0 -111 13.5 -210t45.5 -191.5 t80.5 -159.5t124.5 -107t172 -40q66 0 136 22t120 57q34 26 43 56t9 114v109q0 57 -1 94t-5 71.5t-9 54t-17.5 37t-25 25.5t-36 14.5t-46.5 8.5t-61 4l-43 2v6h592v-6l-43 -2q-33 -1 -51 -7t-33.5 -22t-22 -51.5t-9.5 -88t-3 -140.5v-367h-4q-88 113 -148 113q-26 0 -73 -33 q-119 -80 -273 -80t-279 60t-203 161t-119.5 228t-41.5 266z" />
<glyph unicode="H" horiz-adv-x="1595" d="M63 0v6l43 2q33 1 51 7t33.5 22t22 51.5t9.5 88t3 140.5v746q0 88 -3 140.5t-9.5 88t-22 51.5t-33.5 22t-51 7l-43 2v6h510v-6l-43 -2q-54 -2 -76.5 -21.5t-32 -81t-9.5 -206.5v-350h772v350q0 88 -3 140.5t-9.5 88t-22 51.5t-33.5 22t-51 7l-43 2v6h510v-6l-43 -2 q-33 -1 -51 -7t-33.5 -22t-22 -51.5t-9.5 -88t-3 -140.5v-746q0 -88 3 -140.5t9.5 -88t22 -51.5t33.5 -22t51 -7l43 -2v-6h-510v6l43 2q33 1 51 7t33.5 22t22 51.5t9.5 88t3 140.5v388h-772v-388q0 -145 9.5 -206.5t32 -81t76.5 -21.5l43 -2v-6h-510z" />
<glyph unicode="I" horiz-adv-x="636" d="M63 0v6l43 2q33 1 51 7t33.5 22t22 51.5t9.5 88t3 140.5v746q0 88 -3 140.5t-9.5 88t-22 51.5t-33.5 22t-51 7l-43 2v6h510v-6l-43 -2q-54 -2 -76.5 -21.5t-32 -81t-9.5 -206.5v-746q0 -145 9.5 -206.5t32 -81t76.5 -21.5l43 -2v-6h-510z" />
<glyph unicode="J" horiz-adv-x="1048" d="M49 186q0 48 31 78.5t82 30.5q45 0 76.5 -31t31.5 -78q0 -38 -23.5 -80.5t-23.5 -54.5q0 -16 3.5 -25.5t16 -21t42.5 -17t77 -5.5q54 0 96.5 14.5t71 37t49 59.5t31.5 73t17.5 87.5t8 92.5t1.5 98v619q0 88 -3 140.5t-9.5 88t-22 51.5t-33.5 22t-51 7l-43 2v6h510v-6 l-43 -2q-33 -1 -51 -7t-33.5 -22t-22 -51.5t-9.5 -88t-3 -140.5v-602q0 -100 -26 -185.5t-79.5 -154.5t-144.5 -108.5t-211 -39.5q-152 0 -232.5 64.5t-80.5 148.5z" />
<glyph unicode="K" horiz-adv-x="1400" d="M63 0v6l43 2q33 1 51 7t33.5 22t22 51.5t9.5 88t3 140.5v746q0 88 -3 140.5t-9.5 88t-22 51.5t-33.5 22t-51 7l-43 2v6h510v-6l-43 -2q-54 -2 -76.5 -21.5t-32 -81t-9.5 -206.5v-371h41q32 0 56.5 8t63 39t74.5 67.5t113 117.5l65 69q133 143 155 257q4 19 4 35 q0 62 -55 81q-14 5 -32 6l-43 2v6h539v-6l-43 -2q-55 -2 -110.5 -27.5t-158 -111.5t-247.5 -240l-68 -71q-8 -8 -46.5 -50t-59 -62.5t-54 -51.5t-59.5 -47.5t-47 -20.5q124 0 223.5 -35.5t168 -95.5t122.5 -149q32 -49 108 -183q67 -111 114 -163.5t99 -55.5l37 -2v-6h-340 q-33 71 -86 170q-11 21 -64.5 123t-74.5 139q-66 113 -106 163t-83.5 69.5t-115.5 19.5h-90v-367q0 -145 9.5 -206.5t32 -81t76.5 -21.5l43 -2v-6h-510z" />
<glyph unicode="L" horiz-adv-x="1241" d="M63 0v6l43 2q33 1 51 7t33.5 22t22 51.5t9.5 88t3 140.5v746q0 88 -3 140.5t-9.5 88t-22 51.5t-33.5 22t-51 7l-43 2v6h510v-6l-43 -2q-54 -2 -76.5 -21.5t-32 -81t-9.5 -206.5v-746q0 -77 0.5 -119.5t4.5 -82.5t9 -57t17 -30.5t26.5 -16.5t38.5 -3h164q66 0 110 8 t88.5 31.5t78.5 70t69.5 121t71.5 185.5l22 70h6v-494h-1055z" />
<glyph unicode="M" horiz-adv-x="1734" d="M63 0v6l23 2q83 7 120.5 125.5t37.5 358.5v571q0 84 -6 140t-15.5 89t-29 50.5t-39.5 23t-54 6.5l-37 2v6h347l499 -796l441 796h321v-6l-43 -2q-33 -1 -51 -7t-33.5 -22t-22 -51.5t-9.5 -88t-3 -140.5v-746q0 -88 3 -140.5t9.5 -88t22 -51.5t33.5 -22t51 -7l43 -2v-6 h-510v6l43 2q33 1 51 7t33.5 22t22 51.5t9.5 88t3 140.5v1002l-498 -909h-26l-547 858v-776q0 -69 12 -146.5t35.5 -154.5t67 -128.5t98.5 -54.5l43 -2v-6h-445z" />
<glyph unicode="N" horiz-adv-x="1597" d="M63 0v6l23 2q83 7 120.5 125.5t37.5 358.5v571q0 84 -6 140t-15.5 89t-29 50.5t-39.5 23t-54 6.5l-37 2v6h338l945 -1144v653q0 69 -12 146.5t-35.5 154t-67 128t-98.5 54.5l-43 2v6h444v-6l-23 -2q-83 -7 -120 -124.5t-37 -358.5v-907h-29l-1073 1275v-765 q0 -69 12 -146.5t35.5 -154.5t67 -128.5t98.5 -54.5l43 -2v-6h-445z" />
<glyph unicode="O" horiz-adv-x="1536" d="M92 692q0 142 45.5 270t129 227.5t213.5 158.5t288 59t288 -59t213.5 -158.5t129 -227.5t45.5 -270t-45.5 -271t-129 -229t-213.5 -159.5t-288 -59.5t-288 59.5t-213.5 159.5t-129 229t-45.5 271zM303 690q0 -115 14 -215.5t48.5 -192.5t86.5 -157.5t133 -104t183 -38.5 q127 0 220 57t145 158.5t76 223.5t24 269q0 115 -14 215.5t-48.5 193t-86.5 158t-133 104t-183 38.5q-103 0 -183.5 -38.5t-132.5 -103.5t-86.5 -157t-48.5 -192.5t-14 -217.5z" />
<glyph unicode="P" horiz-adv-x="1312" d="M63 0v6l43 2q33 1 51 7t33.5 22t22 51.5t9.5 88t3 140.5v746q0 88 -3 140.5t-9.5 88t-22 51.5t-33.5 22t-51 7l-43 2v6h664q218 0 350.5 -115t132.5 -302q0 -170 -123 -274.5t-352 -104.5h-323v-267q0 -76 1.5 -120.5t9.5 -82t17.5 -54.5t33 -30t48.5 -16.5t70 -5.5 l43 -2v-6h-572zM412 592h323q70 0 120.5 30.5t77 84.5t38.5 116t12 138q0 73 -14 142.5t-42.5 131.5t-80 99.5t-119.5 37.5h-219q-24 0 -38.5 -3t-26.5 -16.5t-17 -30.5t-9 -57t-4.5 -82.5t-0.5 -119.5v-471z" />
<glyph unicode="Q" horiz-adv-x="1536" d="M92 692q0 142 45.5 270t129 227.5t213.5 158.5t288 59t288 -59t213.5 -158.5t129 -227.5t45.5 -270q0 -147 -47 -278.5t-141.5 -235t-225.5 -155.5q40 -53 69 -85.5t70 -69t85.5 -54t93.5 -17.5q74 0 114.5 47t40.5 140h10q0 -149 -65.5 -243.5t-173.5 -94.5q-36 0 -68 7 t-60.5 23.5t-52 33t-47 45.5t-40 51t-37.5 58.5t-33.5 59t-32.5 62.5q-70 -13 -135 -13q-158 0 -288 59.5t-213.5 159.5t-129 229t-45.5 271zM303 690q0 -428 182 -602q5 100 50.5 152.5t140.5 52.5q52 0 98 -18.5t89 -58.5t70.5 -72t72.5 -91q119 83 173 250.5t54 386.5 q0 115 -14 215.5t-48.5 193t-86.5 158t-133 104t-183 38.5q-103 0 -183.5 -38.5t-132.5 -103.5t-86.5 -157t-48.5 -192.5t-14 -217.5zM492 82q111 -100 276 -100q65 0 127 16q-21 41 -30.5 59.5t-29 53.5t-32.5 52.5t-33.5 41t-38.5 35t-41.5 20t-48.5 8.5q-52 0 -86 -27.5 t-47.5 -67t-15.5 -91.5z" />
<glyph unicode="R" horiz-adv-x="1409" d="M63 0v6l43 2q33 1 51 7t33.5 22t22 51.5t9.5 88t3 140.5v746q0 88 -3 140.5t-9.5 88t-22 51.5t-33.5 22t-51 7l-43 2v6h676q126 0 226.5 -38t162.5 -118t62 -192q0 -108 -68.5 -189.5t-179.5 -121.5q-105 -38 -262 -38q-25 0 -51 1q170 -44 263 -104.5t163 -169.5 q32 -49 108 -183q67 -111 114 -163.5t99 -55.5l37 -2v-6h-340q-33 71 -86 170q-11 21 -64.5 123t-74.5 139q-65 114 -106 164.5t-83.5 69t-115.5 18.5h-131v-367q0 -145 9.5 -206.5t32 -81t76.5 -21.5l43 -2v-6h-510zM412 692h325q73 0 122.5 25.5t75 74.5t36 105t10.5 131 q0 166 -63.5 255t-178.5 89h-231q-24 0 -38.5 -3t-26.5 -16.5t-17 -30.5t-9 -57t-4.5 -82.5t-0.5 -119.5v-371z" />
<glyph unicode="S" horiz-adv-x="1345" d="M178 -27v459h6l25 -76q17 -53 41 -101.5t64 -100t89 -88t119.5 -60.5t151.5 -24q144 0 231.5 67.5t87.5 202.5q0 66 -26 121t-69.5 94t-100.5 72.5t-119.5 62.5t-125.5 58.5t-120 66t-100.5 79.5t-69.5 103.5t-26 134.5q0 160 116.5 261.5t286.5 101.5q126 0 233 -70 q42 -28 68 -28q44 0 125 98h4v-397h-6l-23 71q-44 150 -153.5 234t-241.5 84q-126 0 -196 -60.5t-70 -164.5q0 -68 26.5 -124t70.5 -96t102 -74.5t121.5 -65t127 -61.5t121.5 -69.5t102 -83.5t70.5 -109t26.5 -141q0 -167 -133.5 -272t-337.5 -105q-152 0 -275 80 q-48 31 -75 31q-58 0 -144 -111h-4z" />
<glyph unicode="T" horiz-adv-x="1290" d="M61 969v411h1166v-411h-6l-23 69q-30 91 -67 157t-68.5 99t-69 52t-59.5 22.5t-47 3.5h-53q-24 0 -38.5 -3t-26.5 -16.5t-17.5 -30.5t-9 -57t-4.5 -83t-1 -119v-746q0 -88 3 -140.5t9.5 -88t22 -51.5t33.5 -22t51 -7l43 -2v-6h-510v6l43 2q33 1 51 7t33.5 22t22 51.5 t9.5 88t3 140.5v746q0 77 -0.5 119.5t-4.5 82.5t-9 57t-17 30.5t-26.5 16.5t-38.5 3h-54q-25 0 -47 -3.5t-59.5 -22.5t-69 -52t-68.5 -99t-67 -157l-22 -69h-7z" />
<glyph unicode="U" horiz-adv-x="1595" d="M63 1374v6h510v-6l-43 -2q-54 -2 -76.5 -21.5t-32 -81t-9.5 -206.5v-604q0 -210 118.5 -329.5t343.5 -119.5q220 0 343.5 126t123.5 321v432q0 69 -12 146.5t-35.5 154t-67 128t-98.5 54.5l-43 2v6h447v-6l-23 -2q-84 -7 -121.5 -125t-37.5 -358v-432q0 -216 -146 -348 t-403 -132q-265 0 -420.5 129t-155.5 351v606q0 88 -3 140.5t-9.5 88t-22 51.5t-33.5 22t-51 7z" />
<glyph unicode="V" horiz-adv-x="1382" d="M10 1374v6h490v-6l-54 -2q-74 -2 -83 -46q-1 -6 -1 -14q0 -47 44 -162q8 -21 40 -103l336 -848l273 710q59 151 59 299q0 77 -24 118.5t-91 45.5l-43 2v6h416v-6l-22 -2q-36 -3 -58 -15.5t-55 -59t-72.5 -137.5t-101.5 -251l-356 -929h-23l-432 1056q-65 158 -96 220 t-57.5 86.5t-71.5 29.5z" />
<glyph unicode="W" horiz-adv-x="1925" d="M20 1374v6h480v-6l-43 -2q-32 -2 -52 -8.5t-30 -24.5t-12.5 -39.5t4.5 -62t17 -81.5t30 -109l227 -789l373 1147h28l392 -1159l184 663q39 140 39 299q0 77 -24 118.5t-91 45.5l-43 2v6h406v-6l-23 -2q-27 -2 -43.5 -8t-42 -31.5t-48 -73t-53.5 -135t-67 -215.5 l-262 -934h-27l-399 1170l-381 -1170h-27l-301 1061q-43 150 -70.5 217t-53 90.5t-70.5 28.5z" />
<glyph unicode="X" horiz-adv-x="1396" d="M20 0v6l23 2q59 3 158 109.5t297 382.5l114 159l-264 377q-150 214 -195 264q-57 64 -111 72h-3l-16 2v6h485v-6l-43 -2q-70 -5 -70 -51q0 -49 97 -192q20 -29 57 -82l192 -275l80 115q104 147 144.5 233.5t40.5 147.5q0 52 -16 76.5t-66 27.5l-43 2v6h426v-6l-23 -2 q-61 -3 -163 -111t-292 -380l-81 -117l294 -420q142 -204 200.5 -268.5t117.5 -67.5l16 -2v-6h-485v6l43 2q66 3 66 46q0 45 -91 181q-16 25 -55 81l-12 18l-224 317l-112 -157q-103 -146 -143.5 -233t-40.5 -148q0 -52 15.5 -77t65.5 -28l43 -2v-6h-426z" />
<glyph unicode="Y" horiz-adv-x="1314" d="M2 1374v6h506v-6l-43 -2q-75 -6 -75 -56q0 -49 86 -191q16 -27 48 -78l219 -357l144 219q137 209 137 322q0 65 -24 101t-91 40l-43 2v6h447v-6l-43 -2q-56 -3 -117.5 -82t-257.5 -385l-147 -227v-361q0 -145 9.5 -206.5t32 -81t76.5 -21.5l43 -2v-6h-510v6l43 2 q33 1 51 7t33.5 22t22 51.5t9.5 88t3 140.5v355l-237 364q-22 34 -50.5 78.5t-43 67.5t-35 53.5t-31.5 45t-26 33.5t-25 26.5t-23 16.5t-25 11.5t-26 3.5z" />
<glyph unicode="Z" horiz-adv-x="1269" d="M143 0v27l756 1345h-268q-47 0 -77 -1.5t-68.5 -9t-65 -20.5t-57.5 -37.5t-55 -60t-48.5 -87t-46.5 -118.5l-23 -69h-6v411h922v-26l-774 -1346h373q65 0 109.5 6.5t91 27.5t80.5 59.5t68 103t64 157.5l23 70h6v-432h-1004z" />
<glyph unicode="[" horiz-adv-x="628" d="M178 -426v1806h410v-8h-160q-24 0 -38.5 -3t-26.5 -16.5t-17 -30.5t-9 -57t-4.5 -82.5t-0.5 -119.5v-1172q0 -77 0.5 -119.5t4.5 -82.5t9 -57t17 -30.5t26.5 -16.5t38.5 -3h160v-8h-410z" />
<glyph unicode="\" horiz-adv-x="688" d="M59 1380h21l551 -1380h-21z" />
<glyph unicode="]" horiz-adv-x="628" d="M41 -418h160q24 0 38.5 3t26.5 16.5t17 30.5t9 57t4.5 82.5t0.5 119.5v1172q0 77 -0.5 119.5t-4.5 82.5t-9 57t-17 30.5t-26.5 16.5t-38.5 3h-160v8h410v-1806h-410v8z" />
<glyph unicode="^" d="M20 -205v533h697v-287h-185v102h-327v-163h799v-185h-984zM20 389v553h185v-184h799v-185h-799v-184h-185zM20 1004v430h185v-246h307v205h184v-205h308v-184h-984z" />
<glyph unicode="_" d="M0 -406h1024v-20h-1024v20z" />
<glyph unicode="`" d="M358 1380h158l150 -383h-9z" />
<glyph unicode="a" horiz-adv-x="1036" d="M88 240q0 245 379 245q130 0 242 -49v281q0 105 -57.5 162t-168.5 57q-153 0 -153 -57q0 -12 22.5 -48.5t22.5 -72.5q0 -44 -30.5 -73.5t-72.5 -29.5q-49 0 -78.5 29t-29.5 74q0 80 84.5 133t232.5 53q77 0 147 -19.5t127 -57.5t90.5 -101t33.5 -143v-342q0 -82 3 -130.5 t7 -79t17.5 -43t25 -16t39.5 -4.5l41 -2v-6h-299v141q-99 -164 -281 -164q-154 0 -249 70t-95 193zM279 229q0 -227 208 -227q66 0 126.5 42t95.5 108v274q-104 49 -215 49q-42 0 -77 -10.5t-68 -36.5t-51.5 -76.5t-18.5 -122.5z" />
<glyph unicode="b" horiz-adv-x="1103" d="M49 0v6l41 2q28 1 39.5 4.5t25 16t17.5 43t7 79t3 130.5v819q0 82 -3 130.5t-7 78.5t-17.5 42.5t-25 16t-39.5 4.5l-41 2v6h303v-460q88 24 178 24q115 0 210.5 -37.5t159 -102.5t98 -151t34.5 -184q0 -121 -43.5 -214t-117.5 -147t-163 -81t-190 -27h-469zM352 8h168 q79 0 141 39t98.5 105t55.5 146.5t19 170.5q0 467 -304 467q-86 0 -178 -27v-901z" />
<glyph unicode="c" horiz-adv-x="995" d="M72 457q0 99 29 185.5t86 154.5t151 107.5t215 39.5q154 0 244 -65.5t90 -147.5q0 -48 -31 -78t-82 -30q-45 0 -76.5 30.5t-31.5 77.5q0 38 23.5 80.5t23.5 54.5q0 70 -160 70q-75 0 -128.5 -27.5t-83.5 -69t-47 -107t-21.5 -123t-4.5 -136.5q0 -53 2 -94t9.5 -92.5 t20 -90.5t35.5 -78t54.5 -64t78.5 -40.5t105 -15.5q265 0 324 246l10 -2q-30 -132 -124 -200.5t-251 -68.5q-110 0 -199.5 41t-145.5 109.5t-85.5 154t-29.5 179.5z" />
<glyph unicode="d" horiz-adv-x="1103" d="M72 469q0 98 34.5 184t97.5 151t158.5 102.5t210.5 37.5q91 0 179 -24v180q0 69 -1 112.5t-6.5 75t-10 47t-18 24t-24 10.5t-33.5 3l-41 2v6h304v-1099q0 -82 3 -130.5t7 -79t17.5 -43t25 -16t39.5 -4.5l41 -2v-6h-473q-81 0 -154 16t-138.5 52.5t-113.5 90t-76 133 t-28 177.5zM270 469q0 -90 18.5 -170.5t54.5 -146.5t97.5 -105t139.5 -39h172v901q-102 27 -179 27q-303 0 -303 -467z" />
<glyph unicode="e" horiz-adv-x="1038" d="M72 457q0 123 35 218t96.5 152.5t138 87t164.5 29.5q211 0 311.5 -114t100.5 -308h-650v-49q0 -52 2.5 -94t10 -93t21 -90t37 -77.5t55 -64t79 -41t105.5 -15.5q268 0 327 246l10 -2q-29 -131 -125 -200t-253 -69q-111 0 -201 41t-146.5 109t-87 154t-30.5 180zM268 530 h457q0 56 -2.5 99t-10 93t-22.5 85.5t-38.5 66.5t-60.5 46.5t-85 15.5q-60 0 -103 -20t-68.5 -52.5t-40.5 -87t-20 -110.5t-6 -136z" />
<glyph unicode="f" horiz-adv-x="681" d="M59 911v9h146v165q0 145 84.5 233.5t232.5 88.5q114 0 182 -53.5t68 -132.5q0 -45 -29.5 -74t-78.5 -29q-42 0 -72.5 29.5t-30.5 73.5q0 35 22.5 72t22.5 48q0 26 -22.5 42t-63.5 16q-86 0 -115.5 -48t-29.5 -171v-260h235v-9h-235v-630q0 -70 1 -112.5t7 -75t11.5 -47.5 t21.5 -24.5t29 -11t42 -2.5l62 -2v-6h-477v6l41 2q28 1 39.5 4.5t25 16t17.5 43t7 79t3 130.5v630h-146z" />
<glyph unicode="g" horiz-adv-x="1103" d="M72 451q0 98 29 177.5t77.5 133t115 90t139 52.5t151.5 16h471v-7l-41 -2q-28 -1 -39.5 -4.5t-25 -16t-17.5 -42.5t-7 -78.5t-3 -130.5v-655q0 -410 -447 -410q-156 0 -255 65t-99 144q0 47 29.5 76.5t76.5 29.5q42 0 72.5 -30t30.5 -76q0 -35 -22.5 -71.5t-22.5 -57.5 q0 -27 49 -49.5t141 -22.5q72 0 122.5 18.5t80.5 49.5t46.5 84.5t22 110t5.5 139.5v16q-92 -25 -179 -25q-153 0 -268.5 65t-174 172.5t-58.5 238.5zM270 451q0 -467 303 -467q81 0 179 26v901h-170q-79 0 -140.5 -38.5t-98 -104.5t-55 -146.5t-18.5 -170.5z" />
<glyph unicode="h" horiz-adv-x="1134" d="M49 0v6l41 2q28 1 39.5 4.5t25 16t17.5 43t7 79t3 130.5v819q0 82 -3 130.5t-7 78.5t-17.5 42.5t-25 16t-39.5 4.5l-41 2v6h303v-598q98 162 277 162q144 0 246 -88t102 -240v-335q0 -82 3 -130.5t7 -79t17.5 -43t25 -16t39.5 -4.5l41 -2v-6h-436v6l41 2q28 1 39.5 4.5 t25 16t17.5 43t7 79t3 130.5v337q0 151 -57 226.5t-154 75.5q-157 0 -244 -152v-487q0 -82 3 -130.5t7 -79t17.5 -43t25 -16t39.5 -4.5l41 -2v-6h-436z" />
<glyph unicode="i" horiz-adv-x="497" d="M49 0v6l41 2q28 1 39.5 4.5t25 16t17.5 43t7 79t3 130.5v358q0 82 -3 130.5t-7 78.5t-17.5 42.5t-25 16t-39.5 4.5l-41 2v7h303v-639q0 -82 3 -130.5t7 -79t17.5 -43t25 -16t39.5 -4.5l41 -2v-6h-436zM168 1282q0 48 27.5 76t68.5 28t69.5 -28t28.5 -76q0 -46 -28 -75 t-70 -29q-41 0 -68.5 29t-27.5 75z" />
<glyph unicode="j" horiz-adv-x="497" d="M-152 -252q0 40 27.5 66t71.5 26q37 0 64.5 -26.5t27.5 -65.5q0 -32 -20.5 -65.5t-20.5 -44.5q0 -56 59 -56q69 0 97 50t28 169v838q0 82 -3 130.5t-7 78.5t-17.5 42.5t-25 16t-39.5 4.5l-41 2v7h303v-1024q0 -143 -82.5 -232.5t-214.5 -89.5q-93 0 -150 50.5t-57 123.5z M168 1282q0 48 27.5 76t68.5 28t69.5 -28t28.5 -76q0 -46 -28 -75t-70 -29q-41 0 -68.5 29t-27.5 75z" />
<glyph unicode="k" horiz-adv-x="1046" d="M49 0v6l41 2q28 1 39.5 4.5t25 16t17.5 43t7 79t3 130.5v819q0 82 -3 130.5t-7 78.5t-17.5 42.5t-25 16t-39.5 4.5l-41 2v6h303v-899h21q40 0 84.5 35.5t124.5 122.5l24 27q48 50 72 106q19 45 19 79q1 9 -1 17q-6 40 -45 43l-28 2v7h340v-7l-29 -2q-48 -3 -114 -52.5 t-208 -199.5l-24 -26q-135 -141 -178 -154q61 0 110 -14.5t88.5 -46.5t61.5 -56.5t59 -72.5q34 -46 96 -135q38 -51 57 -75t45 -46.5t46 -24.5l24 -2v-6h-272q-35 79 -57 115q-83 137 -119 190q-10 16 -25 38.5t-22 32.5t-17.5 26t-15.5 22.5t-13.5 16.5t-13.5 13.5t-12 8.5 t-13.5 6.5t-14.5 2.5t-17 1h-33v-192q0 -82 3 -130.5t7 -79t17.5 -43t25 -16t39.5 -4.5l41 -2v-6h-436z" />
<glyph unicode="l" horiz-adv-x="497" d="M31 0v6l41 2q28 1 39.5 4.5t25 16t17.5 43t7 79t3 130.5v819q0 82 -3 130.5t-7 78.5t-17.5 42.5t-25 16t-39.5 4.5l-41 2v6h303v-1099q0 -82 3 -130.5t7 -79t17.5 -43t25 -16t39.5 -4.5l41 -2v-6h-436z" />
<glyph unicode="m" horiz-adv-x="1777" d="M49 0v6l41 2q28 1 39.5 4.5t25 16t17.5 43t7 79t3 130.5v358q0 82 -3 130.5t-7 78.5t-17.5 42.5t-25 16t-39.5 4.5l-41 2v7h299v-142q100 166 285 166q112 0 202.5 -52.5t127.5 -146.5q44 90 121.5 144.5t181.5 54.5q95 0 174 -36.5t129.5 -112.5t50.5 -179v-335 q0 -82 3 -130.5t7 -79t17.5 -43t25 -16t39.5 -4.5l41 -2v-6h-436v6l41 2q28 1 39.5 4.5t25 16t17.5 43t7 79t3 130.5v337q0 152 -58 227t-159 75q-91 0 -158.5 -50.5t-107.5 -136.5q20 -58 20 -117v-335q0 -82 3 -130.5t7 -79t17.5 -43t25 -16t39.5 -4.5l41 -2v-6h-436v6 l41 2q28 1 39.5 4.5t25 16t17.5 43t7 79t3 130.5v337q0 152 -58 227t-159 75q-161 0 -248 -152v-487q0 -82 3 -130.5t7 -79t17.5 -43t25 -16t39.5 -4.5l41 -2v-6h-436z" />
<glyph unicode="n" horiz-adv-x="1161" d="M49 0v6l41 2q28 1 39.5 4.5t25 16t17.5 43t7 79t3 130.5v358q0 82 -3 130.5t-7 78.5t-17.5 42.5t-25 16t-39.5 4.5l-41 2v7h299v-142q103 164 291 164q99 0 180.5 -36t133 -111.5t51.5 -178.5v-335q0 -82 3 -130.5t7 -79t17.5 -43t25 -16t39.5 -4.5l41 -2v-6h-437v6l41 2 q23 1 33.5 3t24 11t18 24.5t10 47t6.5 75t1 112.5v337q0 151 -61.5 225.5t-166.5 74.5q-165 0 -254 -150v-487q0 -82 3 -130.5t7 -79t17.5 -43t25 -16t39.5 -4.5l41 -2v-6h-436z" />
<glyph unicode="o" horiz-adv-x="1069" d="M72 461q0 129 53.5 237.5t161 177t248.5 68.5q107 0 196 -40t147 -107.5t89.5 -154.5t31.5 -183t-31.5 -183t-89.5 -155t-147 -108t-196 -40q-141 0 -248.5 69.5t-161 179.5t-53.5 239zM270 459q0 -107 11.5 -187.5t40 -149t82 -104.5t131.5 -36q63 0 110 24t76 65 t47 103.5t24.5 129.5t6.5 153q0 85 -6.5 152.5t-24.5 130.5t-47 104.5t-76 66.5t-110 25q-78 0 -131.5 -35.5t-82 -103.5t-40 -149t-11.5 -189z" />
<glyph unicode="p" horiz-adv-x="1103" d="M49 -420l41 2q28 1 39.5 4.5t25 16t17.5 43t7 79t3 130.5v784q0 82 -3 130.5t-7 78.5t-17.5 42.5t-25 16t-39.5 4.5l-41 2v7h471q101 0 189.5 -27t162.5 -81t117 -147t43 -214q0 -97 -35 -184t-98.5 -151.5t-159 -102.5t-209.5 -38q-86 0 -178 25v-145q0 -82 3 -130.5 t7 -79t17.5 -43t25 -16t39.5 -4.5l41 -2v-6h-436v6zM352 10q98 -26 178 -26q304 0 304 467q0 90 -18.5 170.5t-55 146.5t-98 104.5t-140.5 38.5h-170v-901z" />
<glyph unicode="q" horiz-adv-x="1103" d="M72 451q0 121 43 214t117 147t162.5 81t189.5 27h471v-7l-41 -2q-28 -1 -39.5 -4.5t-25 -16t-17.5 -42.5t-7 -78.5t-3 -130.5v-784q0 -82 3 -130.5t7 -79t17.5 -43t25 -16t39.5 -4.5l41 -2v-6h-437v6l41 2q23 1 33.5 3t24 11t18 24.5t10 47t6.5 75t1 112.5v147 q-99 -27 -179 -27q-153 0 -268.5 65t-174 172.5t-58.5 238.5zM270 451q0 -225 75 -346t228 -121q81 0 179 26v901h-170q-79 0 -140.5 -38.5t-98 -104.5t-55 -146.5t-18.5 -170.5z" />
<glyph unicode="r" horiz-adv-x="770" d="M49 0v6l41 2q28 1 39.5 4.5t25 16t17.5 43t7 79t3 130.5v358q0 82 -3 130.5t-7 78.5t-17.5 42.5t-25 16t-39.5 4.5l-41 2v7h299v-142q84 166 230 166q74 0 126 -44t52 -114q0 -55 -30.5 -81.5t-72.5 -26.5q-40 0 -69 26.5t-29 65.5q0 28 12 50t26 32t26 23.5t12 27.5 q0 13 -14.5 23t-45.5 10q-139 0 -219 -168v-487q0 -69 1 -112.5t7.5 -75.5t11.5 -47t21.5 -24t29.5 -11t42 -3l61 -2v-6h-477z" />
<glyph unicode="s" horiz-adv-x="856" d="M82 -27v310h12l15 -47q15 -47 38 -87.5t59.5 -80t92.5 -63t125 -23.5q99 0 157 44.5t58 137.5q0 52 -28.5 91.5t-73.5 65.5t-100 49t-110 50t-100 60.5t-73.5 88t-28.5 125.5q0 109 79.5 179.5t196.5 70.5q89 0 162 -47q27 -18 43 -18q17 0 35 15.5t47 49.5h6v-268h-10 l-14 47q-31 103 -102 158t-162 55q-87 0 -133 -40.5t-46 -111.5q0 -53 28.5 -94t74.5 -67.5t101.5 -50.5t111 -52.5t101.5 -63.5t75 -92t29 -131q0 -115 -91.5 -187.5t-230.5 -72.5q-97 0 -188 54q-42 22 -52 22q-37 0 -96 -76h-8z" />
<glyph unicode="t" horiz-adv-x="741" d="M59 911v9h146v329h170v-329h235v-9h-235v-628q0 -43 1 -72.5t8 -73t19.5 -70.5t37 -47t59.5 -20q131 0 131 201h8q0 -51 -7.5 -88.5t-27 -70.5t-57.5 -50t-94 -17q-112 0 -180 81.5t-68 226.5v628h-146z" />
<glyph unicode="u" horiz-adv-x="1120" d="M29 913v7h299v-619q0 -151 57 -226t152 -75q84 0 136.5 39.5t94.5 112.5v487q0 82 -3 130.5t-7 78.5t-17.5 42.5t-25 16t-39.5 4.5l-41 2v7h303v-639q0 -82 3 -130.5t7 -79t17.5 -43t25 -16t39.5 -4.5l41 -2v-6h-299v141q-21 -35 -41.5 -60t-52 -51.5t-76 -40.5 t-98.5 -14q-142 0 -244 88t-102 240v336q0 69 -1 112.5t-6 75t-9.5 47t-17 24t-22.5 10.5t-32 3z" />
<glyph unicode="v" horiz-adv-x="948" d="M4 913v7h393v-7l-37 -2q-56 -4 -61 -38q-1 -3 -1 -8q0 -36 38 -139q4 -10 12 -32l213 -565l174 473q21 60 25 130q1 10 1 20q1 58 -17 103q-20 53 -64 56l-35 2v7h301v-7l-16 -2q-19 -3 -30.5 -8t-28 -21.5t-33 -49t-40 -88.5t-55.5 -142l-231 -629h-68l-274 715 q-54 137 -80.5 177t-71.5 46z" />
<glyph unicode="w" horiz-adv-x="1568" d="M4 913v7h393v-7l-37 -2q-33 -2 -48 -11t-12.5 -39t11 -57.5t32.5 -95.5q3 -9 5 -14l201 -551l266 797h68l301 -803l155 465q15 47 23 98q8 48 8 93v5q0 48 -17.5 79.5t-49.5 33.5l-35 2v7h299v-7l-17 -2q-21 -3 -33 -7t-33.5 -21.5t-39.5 -48t-43 -89.5t-53 -143 l-211 -629h-68l-303 791l-264 -791h-68l-264 715q-49 134 -77.5 175.5t-74.5 47.5z" />
<glyph unicode="x" horiz-adv-x="1007" d="M20 913v7h435v-7l-37 -2q-37 -2 -52 -17.5t-9.5 -45t24.5 -65.5t53 -89l119 -180l98 150q57 84 75 160q5 21 6 38q0 41 -34 49l-34 2v7h301v-7l-17 -2q-50 -6 -129.5 -67.5t-156.5 -179.5l-103 -158l182 -275q79 -121 128.5 -168t103.5 -55l14 -2v-6h-434v6l37 2 q45 6 45 49q0 7 -2 17q-10 60 -70 151l-125 189l-106 -158q-58 -86 -76 -162q-5 -21 -5 -36q0 -42 34 -50l34 -2v-6h-294v6l10 2q52 9 130.5 70.5t156.5 177.5l110 166l-176 266q-84 127 -126.5 171.5t-94.5 51.5z" />
<glyph unicode="y" horiz-adv-x="948" d="M2 913v7h401v-7l-36 -2q-67 -4 -67 -55q0 -48 54 -162l213 -477l154 385q41 97 41 184v24q-7 97 -72 101l-35 2v7h291v-7l-16 -2q-30 -4 -53.5 -25.5t-59 -88.5t-86.5 -195l-242 -606v-33q0 -147 17.5 -229t51 -114.5t93.5 -37.5l23 -2v-6h-377v6l22 2q60 5 93.5 37.5 t51 114.5t17.5 229v33l-311 692q-57 127 -88.5 172.5t-63.5 50.5z" />
<glyph unicode="z" horiz-adv-x="933" d="M109 0v18l520 893h-195q-80 0 -132 -24t-83.5 -68.5t-60.5 -124.5l-17 -45h-6v271h678v-19l-526 -893h258q83 0 136 27.5t81 74.5t55 132l17 51h6v-293h-731z" />
<glyph unicode="{" d="M20 -205v533h697v-287h-185v102h-327v-163h799v-185h-984zM20 389v553h185v-184h799v-185h-799v-184h-185zM20 1004v430h185v-246h307v205h184v-205h308v-184h-984z" />
<glyph unicode="|" horiz-adv-x="512" d="M246 -393v1966h20v-1966h-20z" />
<glyph unicode="}" d="M20 -205v533h697v-287h-185v102h-327v-163h799v-185h-984zM20 389v553h185v-184h799v-185h-799v-184h-185zM20 1004v430h185v-246h307v205h184v-205h308v-184h-984z" />
<glyph unicode="~" d="M20 -205v533h697v-287h-185v102h-327v-163h799v-185h-984zM20 389v553h185v-184h799v-185h-799v-184h-185zM20 1004v430h185v-246h307v205h184v-205h308v-184h-984z" />
<glyph unicode="&#xa0;" />
<glyph unicode="&#xa1;" horiz-adv-x="512" d="M152 827q0 51 29 83t73 32q46 0 75 -31.5t29 -83.5q0 -49 -28.5 -79.5t-73.5 -30.5q-46 0 -75 30.5t-29 79.5zM160 -342q0 98 23.5 230.5t47 276.5t23.5 269v125h8v-125q0 -156 46 -409.5t46 -366.5q0 -42 -25.5 -69t-70.5 -27t-71.5 27t-26.5 69z" />
<glyph unicode="&#xa2;" horiz-adv-x="1048" d="M78 508q0 104 32 199t91 169.5t151 119t203 44.5h2v205h10v-205q161 -4 267 -82.5t106 -160.5q0 -48 -31 -78.5t-82 -30.5q-45 0 -76.5 31t-31.5 78q0 38 23.5 80.5t23.5 54.5q0 13 -11.5 28.5t-34 31.5t-63 27.5t-90.5 12.5v-1032h21q129 0 227 83.5t129 213.5l10 -2 q-30 -134 -135.5 -226.5t-251.5 -95.5v-204h-10v204q-113 1 -205.5 46.5t-151 121t-90.5 170t-32 197.5zM279 508q0 -107 12.5 -189.5t42 -155t86 -114.5t137.5 -49v1032h-2q-77 0 -133 -43.5t-86 -120t-43.5 -165t-13.5 -195.5z" />
<glyph unicode="&#xa3;" horiz-adv-x="1062" d="M123 506v8h196q-28 34 -35.5 44t-30 41.5t-30 50.5t-16 49.5t-8.5 60.5q0 124 95.5 202t268.5 78q77 0 159 -30t136.5 -78.5t54.5 -97.5q0 -45 -29.5 -74t-78.5 -29q-42 0 -72.5 29.5t-30.5 73.5q0 35 23 71.5t23 48.5q0 26 -58 52t-131 26q-233 0 -233 -194 q0 -63 27 -117.5t81.5 -121t67.5 -85.5h334v-8h-328q31 -53 31 -96q0 -73 -47 -129.5t-173 -130.5h359q82 0 130.5 3t78.5 7t42.5 17.5t16 25t4.5 39.5l2 41h6v-283h-808v18l174 154q39 34 58 80.5t19 87.5q0 73 -75 166h-203z" />
<glyph unicode="&#xa4;" d="M20 -205v533h697v-287h-185v102h-327v-163h799v-185h-984zM20 389v553h185v-184h799v-185h-799v-184h-185zM20 1004v430h185v-246h307v205h184v-205h308v-184h-984z" />
<glyph unicode="&#xa5;" horiz-adv-x="1124" d="M51 1008v6h418v-6l-33 -2q-56 -3 -56.5 -36.5t71.5 -144.5l30 -47l166 -256l105 156q104 153 104 221q0 49 -18 76.5t-66 30.5h-33v8h332v-8h-33q-42 -3 -86.5 -57t-191.5 -275l-113 -168h283v-8h-283v-209h283v-8h-283v-43q0 -108 7 -154t23.5 -61t57.5 -17h33v-6h-422 v6h33q40 2 56.5 17t24 61.5t7.5 153.5v43h-283v8h283v209h-283v8h279l-172 266q-98 151 -133 191t-80 43z" />
<glyph unicode="&#xa6;" d="M20 -205v533h697v-287h-185v102h-327v-163h799v-185h-984zM20 389v553h185v-184h799v-185h-799v-184h-185zM20 1004v430h185v-246h307v205h184v-205h308v-184h-984z" />
<glyph unicode="&#xa7;" d="M20 -205v533h697v-287h-185v102h-327v-163h799v-185h-984zM20 389v553h185v-184h799v-185h-799v-184h-185zM20 1004v430h185v-246h307v205h184v-205h308v-184h-984z" />
<glyph unicode="&#xa8;" d="M250 1303q0 48 27.5 76t68.5 28t69.5 -28t28.5 -76q0 -47 -28 -76t-70 -29q-41 0 -68.5 29.5t-27.5 75.5zM578 1303q0 48 27.5 76t68.5 28t69.5 -28t28.5 -76q0 -47 -28 -76t-70 -29q-41 0 -68.5 29.5t-27.5 75.5z" />
<glyph unicode="&#xa9;" d="M20 -205v533h697v-287h-185v102h-327v-163h799v-185h-984zM20 389v553h185v-184h799v-185h-799v-184h-185zM20 1004v430h185v-246h307v205h184v-205h308v-184h-984z" />
<glyph unicode="&#xaa;" d="M20 -205v533h697v-287h-185v102h-327v-163h799v-185h-984zM20 389v553h185v-184h799v-185h-799v-184h-185zM20 1004v430h185v-246h307v205h184v-205h308v-184h-984z" />
<glyph unicode="&#xab;" horiz-adv-x="839" d="M61 477q201 182 340 379h9q-46 -71 -91.5 -184.5t-58.5 -194.5q13 -81 58.5 -194.5t91.5 -184.5h-9q-139 197 -340 379zM389 477q201 182 340 379h8q-46 -71 -91 -184.5t-58 -194.5q13 -81 58 -194.5t91 -184.5h-8q-139 197 -340 379z" />
<glyph unicode="&#xac;" d="M20 -205v533h697v-287h-185v102h-327v-163h799v-185h-984zM20 389v553h185v-184h799v-185h-799v-184h-185zM20 1004v430h185v-246h307v205h184v-205h308v-184h-984z" />
<glyph unicode="&#xad;" horiz-adv-x="512" d="M41 416v121h430v-121h-430z" />
<glyph unicode="&#xae;" d="M20 -205v533h697v-287h-185v102h-327v-163h799v-185h-984zM20 389v553h185v-184h799v-185h-799v-184h-185zM20 1004v430h185v-246h307v205h184v-205h308v-184h-984z" />
<glyph unicode="&#xaf;" d="M254 1227v104h516v-104h-516z" />
<glyph unicode="&#xb0;" d="M20 -205v533h697v-287h-185v102h-327v-163h799v-185h-984zM20 389v553h185v-184h799v-185h-799v-184h-185zM20 1004v430h185v-246h307v205h184v-205h308v-184h-984z" />
<glyph unicode="&#xb1;" d="M20 -205v533h697v-287h-185v102h-327v-163h799v-185h-984zM20 389v553h185v-184h799v-185h-799v-184h-185zM20 1004v430h185v-246h307v205h184v-205h308v-184h-984z" />
<glyph unicode="&#xb2;" d="M20 -205v533h697v-287h-185v102h-327v-163h799v-185h-984zM20 389v553h185v-184h799v-185h-799v-184h-185zM20 1004v430h185v-246h307v205h184v-205h308v-184h-984z" />
<glyph unicode="&#xb3;" d="M20 -205v533h697v-287h-185v102h-327v-163h799v-185h-984zM20 389v553h185v-184h799v-185h-799v-184h-185zM20 1004v430h185v-246h307v205h184v-205h308v-184h-984z" />
<glyph unicode="&#xb4;" d="M358 997l150 383h158l-299 -383h-9z" />
<glyph unicode="&#xb5;" d="M20 -205v533h697v-287h-185v102h-327v-163h799v-185h-984zM20 389v553h185v-184h799v-185h-799v-184h-185zM20 1004v430h185v-246h307v205h184v-205h308v-184h-984z" />
<glyph unicode="&#xb6;" horiz-adv-x="1206" d="M92 922q0 216 136.5 350.5t367.5 134.5q146 0 324 -53v-1391q0 -195 -80.5 -292t-216.5 -97q-153 0 -233.5 64.5t-80.5 148.5q0 48 31 78.5t82 30.5q45 0 76.5 -31t31.5 -78q0 -38 -23.5 -80.5t-23.5 -54.5q0 -15 3.5 -25t16 -21.5t43 -17.5t77.5 -6q135 0 211.5 96.5 t76.5 286.5v494q-45 -11 -150.5 -18t-170.5 -7q-98 0 -185 29t-158 86t-113 153t-42 220z" />
<glyph unicode="&#xb7;" horiz-adv-x="512" d="M152 479q0 49 28.5 80t73.5 31q46 0 75 -31t29 -80q0 -51 -28.5 -82.5t-73.5 -31.5q-46 0 -75 31t-29 83z" />
<glyph unicode="&#xb8;" d="M319 -317q0 25 15.5 40t40.5 15q22 0 37.5 -15.5t15.5 -39.5q0 -17 -11 -33t-11 -23q0 -17 18 -32t49 -15q125 0 125 154q0 80 -29 135.5t-110 116.5h8q132 -93 166 -125q69 -64 69 -133t-63.5 -111.5t-165.5 -42.5q-60 0 -107 30.5t-47 78.5z" />
<glyph unicode="&#xb9;" d="M20 -205v533h697v-287h-185v102h-327v-163h799v-185h-984zM20 389v553h185v-184h799v-185h-799v-184h-185zM20 1004v430h185v-246h307v205h184v-205h308v-184h-984z" />
<glyph unicode="&#xba;" d="M20 -205v533h697v-287h-185v102h-327v-163h799v-185h-984zM20 389v553h185v-184h799v-185h-799v-184h-185zM20 1004v430h185v-246h307v205h184v-205h308v-184h-984z" />
<glyph unicode="&#xbb;" horiz-adv-x="839" d="M102 98q46 71 91.5 184.5t58.5 194.5q-13 81 -58.5 194.5t-91.5 184.5h9q139 -197 340 -379q-201 -182 -340 -379h-9zM430 98q46 71 91.5 184.5t58.5 194.5q-13 81 -58.5 194.5t-91.5 184.5h8q139 -197 340 -379q-201 -182 -340 -379h-8z" />
<glyph unicode="&#xbc;" d="M20 -205v533h697v-287h-185v102h-327v-163h799v-185h-984zM20 389v553h185v-184h799v-185h-799v-184h-185zM20 1004v430h185v-246h307v205h184v-205h308v-184h-984z" />
<glyph unicode="&#xbd;" d="M20 -205v533h697v-287h-185v102h-327v-163h799v-185h-984zM20 389v553h185v-184h799v-185h-799v-184h-185zM20 1004v430h185v-246h307v205h184v-205h308v-184h-984z" />
<glyph unicode="&#xbe;" d="M20 -205v533h697v-287h-185v102h-327v-163h799v-185h-984zM20 389v553h185v-184h799v-185h-799v-184h-185zM20 1004v430h185v-246h307v205h184v-205h308v-184h-984z" />
<glyph unicode="&#xbf;" horiz-adv-x="899" d="M109 -119q0 71 26.5 129.5t84 108.5t123.5 89.5t167 88.5q66 31 92.5 60.5t26.5 72.5q0 59 -48 89t-116 30h-23v8h23q41 0 78 -10.5t66.5 -40.5t29.5 -76q0 -45 -29 -76.5t-98 -64.5q-64 -31 -106 -76t-61 -101.5t-25.5 -107t-6.5 -117.5q0 -342 230 -342q71 0 110 26.5 t39 55.5q0 11 -22.5 48t-22.5 73q0 43 30.5 72.5t72.5 29.5q49 0 78.5 -28.5t29.5 -73.5q0 -87 -96.5 -149t-239.5 -62q-76 0 -147.5 20.5t-132 61t-97 108.5t-36.5 154zM428 829q0 51 29 83t73 32q46 0 75.5 -31.5t29.5 -83.5q0 -49 -29 -79.5t-74 -30.5q-46 0 -75 30.5 t-29 79.5z" />
<glyph unicode="&#xc0;" horiz-adv-x="1382" d="M10 0v6l23 2q47 5 77 30.5t79 123.5t130 309l357 930h22l432 -1057q39 -96 62.5 -148.5t44.5 -93.5t39 -57.5t35.5 -25t44.5 -11.5l16 -2v-6h-489v6l53 2q75 2 84 48q9 43 -43 180q-9 25 -37 98l-92 239h-481l-39 -102q-60 -154 -60 -299q0 -77 24 -118.5t91 -45.5l43 -2 v-6h-416zM371 582h473l-238 616zM383 1679h178l129 -252h-8z" />
<glyph unicode="&#xc1;" horiz-adv-x="1382" d="M10 0v6l23 2q47 5 77 30.5t79 123.5t130 309l357 930h22l432 -1057q39 -96 62.5 -148.5t44.5 -93.5t39 -57.5t35.5 -25t44.5 -11.5l16 -2v-6h-489v6l53 2q75 2 84 48q9 43 -43 180q-9 25 -37 98l-92 239h-481l-39 -102q-60 -154 -60 -299q0 -77 24 -118.5t91 -45.5l43 -2 v-6h-416zM371 582h473l-238 616zM688 1427l129 252h178l-299 -252h-8z" />
<glyph unicode="&#xc2;" horiz-adv-x="1382" d="M10 0v6l23 2q47 5 77 30.5t79 123.5t130 309l357 930h22l432 -1057q39 -96 62.5 -148.5t44.5 -93.5t39 -57.5t35.5 -25t44.5 -11.5l16 -2v-6h-489v6l53 2q75 2 84 48q9 43 -43 180q-9 25 -37 98l-92 239h-481l-39 -102q-60 -154 -60 -299q0 -77 24 -118.5t91 -45.5l43 -2 v-6h-416zM371 582h473l-238 616zM481 1427l119 252h178l119 -252h-8l-201 187l-199 -187h-8z" />
<glyph unicode="&#xc3;" horiz-adv-x="1382" d="M10 0v6l23 2q47 5 77 30.5t79 123.5t130 309l357 930h22l432 -1057q39 -96 62.5 -148.5t44.5 -93.5t39 -57.5t35.5 -25t44.5 -11.5l16 -2v-6h-489v6l53 2q75 2 84 48q9 43 -43 180q-9 25 -37 98l-92 239h-481l-39 -102q-60 -154 -60 -299q0 -77 24 -118.5t91 -45.5l43 -2 v-6h-416zM371 582h473l-238 616zM459 1432q7 70 21.5 116.5t34 68t37.5 29t40 7.5q30 0 123 -33t121 -33q33 0 48 10.5t23 34.5q11 32 15 64h8q-7 -70 -21.5 -116.5t-34 -68t-37.5 -29t-40 -7.5q-30 0 -123 32.5t-121 32.5q-33 0 -48.5 -10.5t-23.5 -34.5q-9 -27 -14 -63h-8 z" />
<glyph unicode="&#xc4;" horiz-adv-x="1382" d="M10 0v6l23 2q47 5 77 30.5t79 123.5t130 309l357 930h22l432 -1057q39 -96 62.5 -148.5t44.5 -93.5t39 -57.5t35.5 -25t44.5 -11.5l16 -2v-6h-489v6l53 2q75 2 84 48q9 43 -43 180q-9 25 -37 98l-92 239h-481l-39 -102q-60 -154 -60 -299q0 -77 24 -118.5t91 -45.5l43 -2 v-6h-416zM371 582h473l-238 616zM424 1575q0 48 27.5 76t68.5 28t69.5 -28t28.5 -76q0 -47 -28 -76t-70 -29q-41 0 -68.5 29.5t-27.5 75.5zM752 1575q0 48 27.5 76t68.5 28t69.5 -28t28.5 -76q0 -47 -28 -76t-70 -29q-41 0 -68.5 29.5t-27.5 75.5z" />
<glyph unicode="&#xc5;" horiz-adv-x="1382" d="M10 0v6l23 2q47 5 77 30.5t79 123.5t130 309l357 930h22l432 -1057q39 -96 62.5 -148.5t44.5 -93.5t39 -57.5t35.5 -25t44.5 -11.5l16 -2v-6h-489v6l53 2q75 2 84 48q9 43 -43 180q-9 25 -37 98l-92 239h-481l-39 -102q-60 -154 -60 -299q0 -77 24 -118.5t91 -45.5l43 -2 v-6h-416zM371 582h473l-238 616zM510 1606q0 68 49.5 112.5t128.5 44.5q78 0 128 -45t50 -112q0 -68 -49.5 -113t-128.5 -45q-78 0 -128 45.5t-50 112.5zM604 1606q0 -150 84 -150q86 0 86 150q0 147 -86 147q-84 0 -84 -147z" />
<glyph unicode="&#xc6;" horiz-adv-x="1990" d="M10 0v6l23 2q35 3 66 20.5t76 64.5t106 140t143 238l504 883q-19 15 -74 18l-84 2v6h1004v-370h-7l-22 69q-25 77 -59.5 131.5t-70.5 85.5t-86 48.5t-94.5 22.5t-107.5 5h-72q-24 0 -38.5 -3t-26.5 -16.5t-17 -30.5t-9 -57t-4.5 -82.5t-0.5 -119.5v-401h76q36 0 61 2.5 t57.5 13t55.5 29.5t44.5 54t35.5 85l12 45h6v-467h-6l-12 45q-14 50 -35.5 85t-44.5 54t-55.5 29.5t-57.5 13t-61 2.5h-76v-336q0 -77 0.5 -119.5t4.5 -82.5t9 -57t17 -30.5t26.5 -16.5t38.5 -3h113q66 0 111.5 6.5t92.5 27.5t81.5 59.5t68.5 103t64 157.5l22 70h7v-432 h-1004v6l43 2q33 1 51 7t33.5 22t22 51.5t9.5 88t3 140.5v336h-434l-105 -182q-52 -92 -79 -142.5t-51.5 -109.5t-24.5 -90q0 -23 3 -39.5t12.5 -36t32 -31.5t56.5 -14l43 -2v-6h-416zM543 662h430v401q0 134 -8 197.5t-29 87.5z" />
<glyph unicode="&#xc7;" horiz-adv-x="1396" d="M113 688q0 112 25.5 216.5t78.5 196t128 159.5t181 107.5t230 39.5q133 0 239 -70q40 -28 66 -28q46 0 127 98h4v-397h-6l-23 69q-45 140 -148.5 230t-254.5 90q-80 0 -146.5 -27.5t-113.5 -78t-81.5 -116t-55 -146.5t-30 -165t-9.5 -176q0 -111 13.5 -210t45.5 -191.5 t80.5 -159.5t124.5 -107t172 -40q93 0 173 39t133 101t86.5 121.5t51.5 118.5l23 70h6v-459h-4q-88 113 -148 113q-26 0 -73 -33q-119 -80 -252 -80q-36 0 -80 7q129 -91 164 -127q61 -60 61 -125q0 -69 -63.5 -111.5t-165.5 -42.5q-60 0 -107 30.5t-47 78.5q0 25 15 40 t40 15q22 0 38 -15.5t16 -39.5q0 -17 -11.5 -33t-11.5 -23q0 -17 18.5 -32t49.5 -15q125 0 125 154q0 78 -28 133t-103 113q-107 13 -198 58.5t-155.5 113t-110 154t-67.5 183.5t-22 199z" />
<glyph unicode="&#xc8;" horiz-adv-x="1282" d="M63 0v6l43 2q33 1 51 7t33.5 22t22 51.5t9.5 88t3 140.5v746q0 88 -3 140.5t-9.5 88t-22 51.5t-33.5 22t-51 7l-43 2v6h1004v-370h-6l-23 69q-25 77 -59.5 131.5t-70.5 85.5t-85.5 48.5t-94 22.5t-107.5 5h-113q-24 0 -38.5 -3t-26.5 -16.5t-17 -30.5t-9 -57t-4.5 -82.5 t-0.5 -119.5v-350h116q36 0 61 2.5t57.5 13t55.5 29.5t44.5 54t35.5 85l13 45h6v-467h-6l-13 45q-17 61 -44 100.5t-64.5 57t-69 22.5t-76.5 5h-116v-388q0 -77 0.5 -119.5t4.5 -82.5t9 -57t17 -30.5t26.5 -16.5t38.5 -3h154q66 0 111.5 6.5t92 27.5t81 59.5t68.5 102.5 t64 158l23 70h6v-432h-1045zM348 1679h178l129 -252h-8z" />
<glyph unicode="&#xc9;" horiz-adv-x="1282" d="M63 0v6l43 2q33 1 51 7t33.5 22t22 51.5t9.5 88t3 140.5v746q0 88 -3 140.5t-9.5 88t-22 51.5t-33.5 22t-51 7l-43 2v6h1004v-370h-6l-23 69q-25 77 -59.5 131.5t-70.5 85.5t-85.5 48.5t-94 22.5t-107.5 5h-113q-24 0 -38.5 -3t-26.5 -16.5t-17 -30.5t-9 -57t-4.5 -82.5 t-0.5 -119.5v-350h116q36 0 61 2.5t57.5 13t55.5 29.5t44.5 54t35.5 85l13 45h6v-467h-6l-13 45q-17 61 -44 100.5t-64.5 57t-69 22.5t-76.5 5h-116v-388q0 -77 0.5 -119.5t4.5 -82.5t9 -57t17 -30.5t26.5 -16.5t38.5 -3h154q66 0 111.5 6.5t92 27.5t81 59.5t68.5 102.5 t64 158l23 70h6v-432h-1045zM625 1427l129 252h178l-299 -252h-8z" />
<glyph unicode="&#xca;" horiz-adv-x="1282" d="M63 0v6l43 2q33 1 51 7t33.5 22t22 51.5t9.5 88t3 140.5v746q0 88 -3 140.5t-9.5 88t-22 51.5t-33.5 22t-51 7l-43 2v6h1004v-370h-6l-23 69q-25 77 -59.5 131.5t-70.5 85.5t-85.5 48.5t-94 22.5t-107.5 5h-113q-24 0 -38.5 -3t-26.5 -16.5t-17 -30.5t-9 -57t-4.5 -82.5 t-0.5 -119.5v-350h116q36 0 61 2.5t57.5 13t55.5 29.5t44.5 54t35.5 85l13 45h6v-467h-6l-13 45q-17 61 -44 100.5t-64.5 57t-69 22.5t-76.5 5h-116v-388q0 -77 0.5 -119.5t4.5 -82.5t9 -57t17 -30.5t26.5 -16.5t38.5 -3h154q66 0 111.5 6.5t92 27.5t81 59.5t68.5 102.5 t64 158l23 70h6v-432h-1045zM444 1427l119 252h178l119 -252h-8l-201 187l-198 -187h-9z" />
<glyph unicode="&#xcb;" horiz-adv-x="1282" d="M63 0v6l43 2q33 1 51 7t33.5 22t22 51.5t9.5 88t3 140.5v746q0 88 -3 140.5t-9.5 88t-22 51.5t-33.5 22t-51 7l-43 2v6h1004v-370h-6l-23 69q-25 77 -59.5 131.5t-70.5 85.5t-85.5 48.5t-94 22.5t-107.5 5h-113q-24 0 -38.5 -3t-26.5 -16.5t-17 -30.5t-9 -57t-4.5 -82.5 t-0.5 -119.5v-350h116q36 0 61 2.5t57.5 13t55.5 29.5t44.5 54t35.5 85l13 45h6v-467h-6l-13 45q-17 61 -44 100.5t-64.5 57t-69 22.5t-76.5 5h-116v-388q0 -77 0.5 -119.5t4.5 -82.5t9 -57t17 -30.5t26.5 -16.5t38.5 -3h154q66 0 111.5 6.5t92 27.5t81 59.5t68.5 102.5 t64 158l23 70h6v-432h-1045zM377 1575q0 48 27.5 76t68.5 28t69.5 -28t28.5 -76q0 -47 -28 -76t-70 -29q-41 0 -68.5 29.5t-27.5 75.5zM705 1575q0 48 27.5 76t68.5 28t69.5 -28t28.5 -76q0 -47 -28 -76t-70 -29q-41 0 -68.5 29.5t-27.5 75.5z" />
<glyph unicode="&#xcc;" horiz-adv-x="636" d="M27 1679h178l129 -252h-8zM63 0v6l43 2q33 1 51 7t33.5 22t22 51.5t9.5 88t3 140.5v746q0 88 -3 140.5t-9.5 88t-22 51.5t-33.5 22t-51 7l-43 2v6h510v-6l-43 -2q-54 -2 -76.5 -21.5t-32 -81t-9.5 -206.5v-746q0 -145 9.5 -206.5t32 -81t76.5 -21.5l43 -2v-6h-510z" />
<glyph unicode="&#xcd;" horiz-adv-x="636" d="M63 0v6l43 2q33 1 51 7t33.5 22t22 51.5t9.5 88t3 140.5v746q0 88 -3 140.5t-9.5 88t-22 51.5t-33.5 22t-51 7l-43 2v6h510v-6l-43 -2q-54 -2 -76.5 -21.5t-32 -81t-9.5 -206.5v-746q0 -145 9.5 -206.5t32 -81t76.5 -21.5l43 -2v-6h-510zM297 1427l129 252h178l-299 -252 h-8z" />
<glyph unicode="&#xce;" horiz-adv-x="636" d="M63 0v6l43 2q33 1 51 7t33.5 22t22 51.5t9.5 88t3 140.5v746q0 88 -3 140.5t-9.5 88t-22 51.5t-33.5 22t-51 7l-43 2v6h510v-6l-43 -2q-54 -2 -76.5 -21.5t-32 -81t-9.5 -206.5v-746q0 -145 9.5 -206.5t32 -81t76.5 -21.5l43 -2v-6h-510zM113 1427l118 252h179l118 -252 h-8l-201 187l-198 -187h-8z" />
<glyph unicode="&#xcf;" horiz-adv-x="636" d="M55 1575q0 48 28 76t69 28t69.5 -28t28.5 -76q0 -47 -28 -76t-70 -29q-41 0 -69 29.5t-28 75.5zM63 0v6l43 2q33 1 51 7t33.5 22t22 51.5t9.5 88t3 140.5v746q0 88 -3 140.5t-9.5 88t-22 51.5t-33.5 22t-51 7l-43 2v6h510v-6l-43 -2q-54 -2 -76.5 -21.5t-32 -81 t-9.5 -206.5v-746q0 -145 9.5 -206.5t32 -81t76.5 -21.5l43 -2v-6h-510zM383 1575q0 48 27.5 76t68.5 28q42 0 70.5 -28t28.5 -76q0 -46 -28.5 -75.5t-70.5 -29.5q-41 0 -68.5 29.5t-27.5 75.5z" />
<glyph unicode="&#xd0;" horiz-adv-x="1519" d="M20 711v8h205v344q0 88 -3 140.5t-9.5 88t-22 51.5t-33.5 22t-51 7l-43 2v6h672q165 0 298.5 -54.5t218.5 -148.5t130 -218t45 -267q0 -114 -29.5 -217.5t-88 -190t-140 -150t-192.5 -99t-240 -35.5h-674v6l43 2q33 1 51 7t33.5 22t22 51.5t9.5 88t3 140.5v394h-205z M412 317q0 -77 0.5 -119.5t4.5 -82.5t9 -57t17 -30.5t26.5 -16.5t38.5 -3h227q125 0 220.5 57t151 154.5t83 216t27.5 254.5q0 110 -19 210t-59 186.5t-96.5 150t-135.5 99.5t-172 36h-227q-24 0 -38.5 -3t-26.5 -16.5t-17 -30.5t-9 -57t-4.5 -82.5t-0.5 -119.5v-344h366v-8 h-366v-394z" />
<glyph unicode="&#xd1;" horiz-adv-x="1597" d="M63 0v6l23 2q83 7 120.5 125.5t37.5 358.5v571q0 84 -6 140t-15.5 89t-29 50.5t-39.5 23t-54 6.5l-37 2v6h338l945 -1144v653q0 69 -12 146.5t-35.5 154t-67 128t-98.5 54.5l-43 2v6h444v-6l-23 -2q-83 -7 -120 -124.5t-37 -358.5v-907h-29l-1073 1275v-765 q0 -69 12 -146.5t35.5 -154.5t67 -128.5t98.5 -54.5l43 -2v-6h-445zM578 1432q7 70 21.5 116.5t34 68t37.5 29t40 7.5q30 0 122.5 -33t120.5 -33q33 0 48.5 10.5t23.5 34.5q9 26 14 64h9q-7 -69 -21.5 -116t-34.5 -68.5t-38 -29t-40 -7.5q-30 0 -122.5 32.5t-120.5 32.5 q-33 0 -48.5 -10.5t-23.5 -34.5q-9 -27 -14 -63h-8z" />
<glyph unicode="&#xd2;" horiz-adv-x="1536" d="M92 692q0 142 45.5 270t129 227.5t213.5 158.5t288 59t288 -59t213.5 -158.5t129 -227.5t45.5 -270t-45.5 -271t-129 -229t-213.5 -159.5t-288 -59.5t-288 59.5t-213.5 159.5t-129 229t-45.5 271zM303 690q0 -115 14 -215.5t48.5 -192.5t86.5 -157.5t133 -104t183 -38.5 q127 0 220 57t145 158.5t76 223.5t24 269q0 115 -14 215.5t-48.5 193t-86.5 158t-133 104t-183 38.5q-103 0 -183.5 -38.5t-132.5 -103.5t-86.5 -157t-48.5 -192.5t-14 -217.5zM471 1679h178l129 -252h-8z" />
<glyph unicode="&#xd3;" horiz-adv-x="1536" d="M92 692q0 142 45.5 270t129 227.5t213.5 158.5t288 59t288 -59t213.5 -158.5t129 -227.5t45.5 -270t-45.5 -271t-129 -229t-213.5 -159.5t-288 -59.5t-288 59.5t-213.5 159.5t-129 229t-45.5 271zM303 690q0 -115 14 -215.5t48.5 -192.5t86.5 -157.5t133 -104t183 -38.5 q127 0 220 57t145 158.5t76 223.5t24 269q0 115 -14 215.5t-48.5 193t-86.5 158t-133 104t-183 38.5q-103 0 -183.5 -38.5t-132.5 -103.5t-86.5 -157t-48.5 -192.5t-14 -217.5zM739 1427l129 252h179l-299 -252h-9z" />
<glyph unicode="&#xd4;" horiz-adv-x="1536" d="M92 692q0 142 45.5 270t129 227.5t213.5 158.5t288 59t288 -59t213.5 -158.5t129 -227.5t45.5 -270t-45.5 -271t-129 -229t-213.5 -159.5t-288 -59.5t-288 59.5t-213.5 159.5t-129 229t-45.5 271zM303 690q0 -115 14 -215.5t48.5 -192.5t86.5 -157.5t133 -104t183 -38.5 q127 0 220 57t145 158.5t76 223.5t24 269q0 115 -14 215.5t-48.5 193t-86.5 158t-133 104t-183 38.5q-103 0 -183.5 -38.5t-132.5 -103.5t-86.5 -157t-48.5 -192.5t-14 -217.5zM557 1427l119 252h178l119 -252h-8l-201 187l-199 -187h-8z" />
<glyph unicode="&#xd5;" horiz-adv-x="1536" d="M92 692q0 142 45.5 270t129 227.5t213.5 158.5t288 59t288 -59t213.5 -158.5t129 -227.5t45.5 -270t-45.5 -271t-129 -229t-213.5 -159.5t-288 -59.5t-288 59.5t-213.5 159.5t-129 229t-45.5 271zM303 690q0 -115 14 -215.5t48.5 -192.5t86.5 -157.5t133 -104t183 -38.5 q127 0 220 57t145 158.5t76 223.5t24 269q0 115 -14 215.5t-48.5 193t-86.5 158t-133 104t-183 38.5q-103 0 -183.5 -38.5t-132.5 -103.5t-86.5 -157t-48.5 -192.5t-14 -217.5zM543 1432q7 70 21.5 116.5t34 68t37.5 29t40 7.5q30 0 123 -33t121 -33q33 0 48 10.5t23 34.5 q11 32 15 64h8q-7 -70 -21.5 -116.5t-34 -68t-37.5 -29t-40 -7.5q-30 0 -123 32.5t-121 32.5q-33 0 -48.5 -10.5t-23.5 -34.5q-9 -27 -14 -63h-8z" />
<glyph unicode="&#xd6;" horiz-adv-x="1536" d="M92 692q0 142 45.5 270t129 227.5t213.5 158.5t288 59t288 -59t213.5 -158.5t129 -227.5t45.5 -270t-45.5 -271t-129 -229t-213.5 -159.5t-288 -59.5t-288 59.5t-213.5 159.5t-129 229t-45.5 271zM303 690q0 -115 14 -215.5t48.5 -192.5t86.5 -157.5t133 -104t183 -38.5 q127 0 220 57t145 158.5t76 223.5t24 269q0 115 -14 215.5t-48.5 193t-86.5 158t-133 104t-183 38.5q-103 0 -183.5 -38.5t-132.5 -103.5t-86.5 -157t-48.5 -192.5t-14 -217.5zM504 1575q0 48 27.5 76t68.5 28t69.5 -28t28.5 -76q0 -47 -28 -76t-70 -29q-41 0 -68.5 29.5 t-27.5 75.5zM831 1575q0 48 28 76t69 28t69.5 -28t28.5 -76q0 -47 -28 -76t-70 -29q-41 0 -69 29.5t-28 75.5z" />
<glyph unicode="&#xd7;" d="M119 203l313 313l-313 315l78 80l315 -315l315 315l78 -80l-313 -315l313 -313l-80 -78l-313 311l-313 -311z" />
<glyph unicode="&#xd8;" horiz-adv-x="1499" d="M92 692q0 142 45.5 270t129 227.5t213.5 158.5t288 59q187 0 336 -84l115 195l8 -5l-115 -194q158 -92 245 -260t87 -367q0 -142 -45.5 -271t-129 -229t-213.5 -159.5t-288 -59.5q-221 0 -387 115l-129 -219l-6 4l129 219q-136 98 -209.5 257.5t-73.5 342.5zM303 690 q0 -337 117 -522l651 1102q-116 129 -303 129q-103 0 -183.5 -38.5t-132.5 -103.5t-86.5 -157t-48.5 -192.5t-14 -217.5zM424 160q121 -178 344 -178q127 0 220 57t145 158.5t76 223.5t24 269q0 388 -156 572z" />
<glyph unicode="&#xd9;" horiz-adv-x="1595" d="M63 1374v6h510v-6l-43 -2q-54 -2 -76.5 -21.5t-32 -81t-9.5 -206.5v-604q0 -210 118.5 -329.5t343.5 -119.5q220 0 343.5 126t123.5 321v432q0 69 -12 146.5t-35.5 154t-67 128t-98.5 54.5l-43 2v6h447v-6l-23 -2q-84 -7 -121.5 -125t-37.5 -358v-432q0 -216 -146 -348 t-403 -132q-265 0 -420.5 129t-155.5 351v606q0 88 -3 140.5t-9.5 88t-22 51.5t-33.5 22t-51 7zM535 1679h178l129 -252h-8z" />
<glyph unicode="&#xda;" horiz-adv-x="1595" d="M63 1374v6h510v-6l-43 -2q-54 -2 -76.5 -21.5t-32 -81t-9.5 -206.5v-604q0 -210 118.5 -329.5t343.5 -119.5q220 0 343.5 126t123.5 321v432q0 69 -12 146.5t-35.5 154t-67 128t-98.5 54.5l-43 2v6h447v-6l-23 -2q-84 -7 -121.5 -125t-37.5 -358v-432q0 -216 -146 -348 t-403 -132q-265 0 -420.5 129t-155.5 351v606q0 88 -3 140.5t-9.5 88t-22 51.5t-33.5 22t-51 7zM815 1427l129 252h178l-299 -252h-8z" />
<glyph unicode="&#xdb;" horiz-adv-x="1595" d="M63 1374v6h510v-6l-43 -2q-54 -2 -76.5 -21.5t-32 -81t-9.5 -206.5v-604q0 -210 118.5 -329.5t343.5 -119.5q220 0 343.5 126t123.5 321v432q0 69 -12 146.5t-35.5 154t-67 128t-98.5 54.5l-43 2v6h447v-6l-23 -2q-84 -7 -121.5 -125t-37.5 -358v-432q0 -216 -146 -348 t-403 -132q-265 0 -420.5 129t-155.5 351v606q0 88 -3 140.5t-9.5 88t-22 51.5t-33.5 22t-51 7zM621 1427l118 252h179l118 -252h-8l-201 187l-198 -187h-8z" />
<glyph unicode="&#xdc;" horiz-adv-x="1595" d="M63 1374v6h510v-6l-43 -2q-54 -2 -76.5 -21.5t-32 -81t-9.5 -206.5v-604q0 -210 118.5 -329.5t343.5 -119.5q220 0 343.5 126t123.5 321v432q0 69 -12 146.5t-35.5 154t-67 128t-98.5 54.5l-43 2v6h447v-6l-23 -2q-84 -7 -121.5 -125t-37.5 -358v-432q0 -216 -146 -348 t-403 -132q-265 0 -420.5 129t-155.5 351v606q0 88 -3 140.5t-9.5 88t-22 51.5t-33.5 22t-51 7zM563 1575q0 48 27.5 76t68.5 28q42 0 70.5 -28t28.5 -76q0 -46 -28.5 -75.5t-70.5 -29.5q-41 0 -68.5 29.5t-27.5 75.5zM891 1575q0 48 27.5 76t68.5 28t69.5 -28t28.5 -76 q0 -47 -28 -76t-70 -29q-41 0 -68.5 29.5t-27.5 75.5z" />
<glyph unicode="&#xdd;" horiz-adv-x="1314" d="M2 1374v6h506v-6l-43 -2q-75 -6 -75 -56q0 -49 86 -191q16 -27 48 -78l219 -357l144 219q137 209 137 322q0 65 -24 101t-91 40l-43 2v6h447v-6l-43 -2q-56 -3 -117.5 -82t-257.5 -385l-147 -227v-361q0 -145 9.5 -206.5t32 -81t76.5 -21.5l43 -2v-6h-510v6l43 2 q33 1 51 7t33.5 22t22 51.5t9.5 88t3 140.5v355l-237 364q-22 34 -50.5 78.5t-43 67.5t-35 53.5t-31.5 45t-26 33.5t-25 26.5t-23 16.5t-25 11.5t-26 3.5zM387 1679h178l129 -252h-8z" />
<glyph unicode="&#xde;" horiz-adv-x="1312" d="M63 0v6l43 2q33 1 51 7t33.5 22t22 51.5t9.5 88t3 140.5v746q0 88 -3 140.5t-9.5 88t-22 51.5t-33.5 22t-51 7l-43 2v6h510v-6l-43 -2q-72 -3 -95 -32t-23 -103h315q223 0 353 -108.5t130 -311.5q0 -94 -30.5 -174t-88.5 -140.5t-149.5 -95t-206.5 -34.5h-323v-56 q0 -145 9.5 -206.5t32 -81t76.5 -21.5l43 -2v-6h-510zM412 381h323q70 0 120.5 36t77 100t38.5 137t12 161q0 84 -13.5 156t-42.5 131t-80 93t-120 34h-315v-848z" />
<glyph unicode="&#xdf;" horiz-adv-x="1202" d="M72 0v6l41 2q28 1 39.5 4.5t25 16t17.5 43t7 79t3 130.5v743q0 159 122 271t310 112q66 0 125.5 -10.5t113 -33t85.5 -65t32 -100.5q0 -53 -29.5 -95.5t-73.5 -68.5t-95.5 -53.5t-95.5 -51t-73.5 -61.5t-29.5 -84q0 -53 28.5 -94t74.5 -67.5t101 -50.5t110.5 -52.5 t101.5 -63.5t75 -92t29 -131q0 -116 -96.5 -188t-251.5 -72q-79 0 -139 17t-92.5 44t-48 56t-15.5 57q0 47 26.5 70t63.5 23q35 0 60.5 -23t25.5 -55q0 -25 -11 -44t-23.5 -27.5t-23.5 -20t-11 -23.5q0 -5 3.5 -11.5t15.5 -16.5t31.5 -18t55.5 -13.5t82 -5.5q109 0 174.5 45 t65.5 137q0 52 -28.5 92t-73.5 66t-100 49t-110 50t-100 60t-73.5 86.5t-28.5 122.5q0 47 19.5 86t51.5 67.5t70 54.5t76 53t70 57.5t51.5 73.5t19.5 94q0 101 -55 162t-168 61q-121 0 -187.5 -70.5t-66.5 -210.5v-1118h-303z" />
<glyph unicode="&#xe0;" horiz-adv-x="1036" d="M88 240q0 245 379 245q130 0 242 -49v281q0 105 -57.5 162t-168.5 57q-153 0 -153 -57q0 -12 22.5 -48.5t22.5 -72.5q0 -44 -30.5 -73.5t-72.5 -29.5q-49 0 -78.5 29t-29.5 74q0 80 84.5 133t232.5 53q77 0 147 -19.5t127 -57.5t90.5 -101t33.5 -143v-342q0 -82 3 -130.5 t7 -79t17.5 -43t25 -16t39.5 -4.5l41 -2v-6h-299v141q-99 -164 -281 -164q-154 0 -249 70t-95 193zM225 1380h158l149 -383h-8zM279 229q0 -227 208 -227q66 0 126.5 42t95.5 108v274q-104 49 -215 49q-42 0 -77 -10.5t-68 -36.5t-51.5 -76.5t-18.5 -122.5z" />
<glyph unicode="&#xe1;" horiz-adv-x="1036" d="M88 240q0 245 379 245q130 0 242 -49v281q0 105 -57.5 162t-168.5 57q-153 0 -153 -57q0 -12 22.5 -48.5t22.5 -72.5q0 -44 -30.5 -73.5t-72.5 -29.5q-49 0 -78.5 29t-29.5 74q0 80 84.5 133t232.5 53q77 0 147 -19.5t127 -57.5t90.5 -101t33.5 -143v-342q0 -82 3 -130.5 t7 -79t17.5 -43t25 -16t39.5 -4.5l41 -2v-6h-299v141q-99 -164 -281 -164q-154 0 -249 70t-95 193zM279 229q0 -227 208 -227q66 0 126.5 42t95.5 108v274q-104 49 -215 49q-42 0 -77 -10.5t-68 -36.5t-51.5 -76.5t-18.5 -122.5zM461 997l149 383h158l-299 -383h-8z" />
<glyph unicode="&#xe2;" horiz-adv-x="1036" d="M88 240q0 245 379 245q130 0 242 -49v281q0 105 -57.5 162t-168.5 57q-153 0 -153 -57q0 -12 22.5 -48.5t22.5 -72.5q0 -44 -30.5 -73.5t-72.5 -29.5q-49 0 -78.5 29t-29.5 74q0 80 84.5 133t232.5 53q77 0 147 -19.5t127 -57.5t90.5 -101t33.5 -143v-342q0 -82 3 -130.5 t7 -79t17.5 -43t25 -16t39.5 -4.5l41 -2v-6h-299v141q-99 -164 -281 -164q-154 0 -249 70t-95 193zM270 997l181 383h137l180 -383h-8l-242 297l-239 -297h-9zM279 229q0 -227 208 -227q66 0 126.5 42t95.5 108v274q-104 49 -215 49q-42 0 -77 -10.5t-68 -36.5t-51.5 -76.5 t-18.5 -122.5z" />
<glyph unicode="&#xe3;" horiz-adv-x="1036" d="M88 240q0 245 379 245q130 0 242 -49v281q0 105 -57.5 162t-168.5 57q-153 0 -153 -57q0 -12 22.5 -48.5t22.5 -72.5q0 -44 -30.5 -73.5t-72.5 -29.5q-49 0 -78.5 29t-29.5 74q0 80 84.5 133t232.5 53q77 0 147 -19.5t127 -57.5t90.5 -101t33.5 -143v-342q0 -82 3 -130.5 t7 -79t17.5 -43t25 -16t39.5 -4.5l41 -2v-6h-299v141q-99 -164 -281 -164q-154 0 -249 70t-95 193zM244 1065q15 135 52 193.5t101 58.5q33 0 133 -33t138 -33q67 0 88 64q8 26 18 76h8q-15 -136 -51.5 -194t-99.5 -58q-32 0 -134 32.5t-139 32.5q-68 0 -88 -63 q-8 -26 -18 -76h-8zM279 229q0 -227 208 -227q66 0 126.5 42t95.5 108v274q-104 49 -215 49q-42 0 -77 -10.5t-68 -36.5t-51.5 -76.5t-18.5 -122.5z" />
<glyph unicode="&#xe4;" horiz-adv-x="1036" d="M88 240q0 245 379 245q130 0 242 -49v281q0 105 -57.5 162t-168.5 57q-153 0 -153 -57q0 -12 22.5 -48.5t22.5 -72.5q0 -44 -30.5 -73.5t-72.5 -29.5q-49 0 -78.5 29t-29.5 74q0 80 84.5 133t232.5 53q77 0 147 -19.5t127 -57.5t90.5 -101t33.5 -143v-342q0 -82 3 -130.5 t7 -79t17.5 -43t25 -16t39.5 -4.5l41 -2v-6h-299v141q-99 -164 -281 -164q-154 0 -249 70t-95 193zM252 1303q0 48 27.5 76t68.5 28t69.5 -28t28.5 -76q0 -47 -28 -76t-70 -29q-41 0 -68.5 29.5t-27.5 75.5zM279 229q0 -227 208 -227q66 0 126.5 42t95.5 108v274 q-104 49 -215 49q-42 0 -77 -10.5t-68 -36.5t-51.5 -76.5t-18.5 -122.5zM580 1303q0 48 27.5 76t68.5 28t69.5 -28t28.5 -76q0 -47 -28 -76t-70 -29q-41 0 -68.5 29.5t-27.5 75.5z" />
<glyph unicode="&#xe5;" horiz-adv-x="1036" d="M88 240q0 245 379 245q130 0 242 -49v281q0 105 -57.5 162t-168.5 57q-153 0 -153 -57q0 -12 22.5 -48.5t22.5 -72.5q0 -44 -30.5 -73.5t-72.5 -29.5q-49 0 -78.5 29t-29.5 74q0 80 84.5 133t232.5 53q77 0 147 -19.5t127 -57.5t90.5 -101t33.5 -143v-342q0 -82 3 -130.5 t7 -79t17.5 -43t25 -16t39.5 -4.5l41 -2v-6h-299v141q-99 -164 -281 -164q-154 0 -249 70t-95 193zM279 229q0 -227 208 -227q66 0 126.5 42t95.5 108v274q-104 49 -215 49q-42 0 -77 -10.5t-68 -36.5t-51.5 -76.5t-18.5 -122.5zM285 1210q0 85 60 141t157 56 q98 0 157.5 -56.5t59.5 -140.5q0 -85 -59.5 -140.5t-157.5 -55.5q-96 0 -156.5 56.5t-60.5 139.5zM385 1210q0 -75 29.5 -131.5t87.5 -56.5q59 0 89 55.5t30 132.5q0 48 -11.5 89.5t-39.5 70.5t-68 29t-67.5 -29t-38.5 -70t-11 -90z" />
<glyph unicode="&#xe6;" horiz-adv-x="1665" d="M88 240q0 245 379 245q130 0 242 -49v281q0 105 -57.5 162t-168.5 57q-153 0 -153 -57q0 -12 22.5 -48.5t22.5 -72.5q0 -44 -30.5 -73.5t-72.5 -29.5q-49 0 -78.5 29t-29.5 74q0 80 84.5 133t232.5 53q102 0 192 -35t144 -102q114 137 316 137q211 0 311 -114t100 -308 h-649v-49q0 -52 2.5 -94t10 -93t20.5 -90t36.5 -77.5t55.5 -64t79 -41t105 -15.5q269 0 328 246l10 -2q-29 -131 -125.5 -200t-253.5 -69q-250 0 -372 183q-77 -104 -163.5 -141.5t-195.5 -37.5q-154 0 -249 70t-95 193zM279 229q0 -66 18.5 -113t50.5 -72t68 -35.5 t78 -10.5q174 0 290 164q-69 108 -75 264q-104 49 -215 49q-42 0 -77 -10.5t-68 -36.5t-51.5 -76.5t-18.5 -122.5zM895 530h457q0 56 -2.5 99t-10 93t-22.5 85.5t-38.5 66.5t-60.5 46.5t-85 15.5q-60 0 -103 -20t-68.5 -52.5t-40.5 -87t-20 -110.5t-6 -136z" />
<glyph unicode="&#xe7;" horiz-adv-x="995" d="M72 457q0 99 29 185.5t86 154.5t151 107.5t215 39.5q154 0 244 -65.5t90 -147.5q0 -48 -31 -78t-82 -30q-45 0 -76.5 30.5t-31.5 77.5q0 38 23.5 80.5t23.5 54.5q0 70 -160 70q-75 0 -128.5 -27.5t-83.5 -69t-47 -107t-21.5 -123t-4.5 -136.5q0 -53 2 -94t9.5 -92.5 t20 -90.5t35.5 -78t54.5 -64t78.5 -40.5t105 -15.5q265 0 324 246l10 -2q-30 -132 -124 -200.5t-251 -68.5q-23 0 -55 4q125 -90 156 -118q67 -63 67 -131q0 -69 -63.5 -111.5t-165.5 -42.5q-60 0 -107 30.5t-47 78.5q0 25 15.5 40t40.5 15q22 0 37.5 -15.5t15.5 -39.5 q0 -17 -11.5 -33t-11.5 -23q0 -17 18.5 -32t49.5 -15q125 0 125 154q0 78 -27 131.5t-102 111.5q-126 15 -217.5 87t-134.5 173.5t-43 219.5z" />
<glyph unicode="&#xe8;" horiz-adv-x="1038" d="M72 457q0 123 35 218t96.5 152.5t138 87t164.5 29.5q211 0 311.5 -114t100.5 -308h-650v-49q0 -52 2.5 -94t10 -93t21 -90t37 -77.5t55 -64t79 -41t105.5 -15.5q268 0 327 246l10 -2q-29 -131 -125 -200t-253 -69q-111 0 -201 41t-146.5 109t-87 154t-30.5 180zM227 1380 h158l150 -383h-9zM268 530h457q0 56 -2.5 99t-10 93t-22.5 85.5t-38.5 66.5t-60.5 46.5t-85 15.5q-60 0 -103 -20t-68.5 -52.5t-40.5 -87t-20 -110.5t-6 -136z" />
<glyph unicode="&#xe9;" horiz-adv-x="1038" d="M72 457q0 123 35 218t96.5 152.5t138 87t164.5 29.5q211 0 311.5 -114t100.5 -308h-650v-49q0 -52 2.5 -94t10 -93t21 -90t37 -77.5t55 -64t79 -41t105.5 -15.5q268 0 327 246l10 -2q-29 -131 -125 -200t-253 -69q-111 0 -201 41t-146.5 109t-87 154t-30.5 180zM268 530 h457q0 56 -2.5 99t-10 93t-22.5 85.5t-38.5 66.5t-60.5 46.5t-85 15.5q-60 0 -103 -20t-68.5 -52.5t-40.5 -87t-20 -110.5t-6 -136zM504 997l149 383h158l-299 -383h-8z" />
<glyph unicode="&#xea;" horiz-adv-x="1038" d="M72 457q0 123 35 218t96.5 152.5t138 87t164.5 29.5q211 0 311.5 -114t100.5 -308h-650v-49q0 -52 2.5 -94t10 -93t21 -90t37 -77.5t55 -64t79 -41t105.5 -15.5q268 0 327 246l10 -2q-29 -131 -125 -200t-253 -69q-111 0 -201 41t-146.5 109t-87 154t-30.5 180zM268 530 h457q0 56 -2.5 99t-10 93t-22.5 85.5t-38.5 66.5t-60.5 46.5t-85 15.5q-60 0 -103 -20t-68.5 -52.5t-40.5 -87t-20 -110.5t-6 -136zM279 997l180 383h137l180 -383h-8l-242 297l-239 -297h-8z" />
<glyph unicode="&#xeb;" horiz-adv-x="1038" d="M72 457q0 123 35 218t96.5 152.5t138 87t164.5 29.5q211 0 311.5 -114t100.5 -308h-650v-49q0 -52 2.5 -94t10 -93t21 -90t37 -77.5t55 -64t79 -41t105.5 -15.5q268 0 327 246l10 -2q-29 -131 -125 -200t-253 -69q-111 0 -201 41t-146.5 109t-87 154t-30.5 180zM268 530 h457q0 56 -2.5 99t-10 93t-22.5 85.5t-38.5 66.5t-60.5 46.5t-85 15.5q-60 0 -103 -20t-68.5 -52.5t-40.5 -87t-20 -110.5t-6 -136zM285 1303q0 48 27.5 76t68.5 28t69.5 -28t28.5 -76q0 -47 -28 -76t-70 -29q-41 0 -68.5 29.5t-27.5 75.5zM612 1303q0 48 28 76t69 28 t69.5 -28t28.5 -76q0 -47 -28 -76t-70 -29q-41 0 -69 29.5t-28 75.5z" />
<glyph unicode="&#xec;" horiz-adv-x="497" d="M-27 1380h158l150 -383h-9zM72 0v6l41 2q28 1 39.5 4.5t25 16t17.5 43t7 79t3 130.5v358q0 82 -3 130.5t-7 78.5t-17.5 42.5t-25 16t-39.5 4.5l-41 2v7h303v-639q0 -82 3 -130.5t7 -79t17.5 -43t25 -16t39.5 -4.5l41 -2v-6h-436z" />
<glyph unicode="&#xed;" horiz-adv-x="497" d="M72 0v6l41 2q28 1 39.5 4.5t25 16t17.5 43t7 79t3 130.5v358q0 82 -3 130.5t-7 78.5t-17.5 42.5t-25 16t-39.5 4.5l-41 2v7h303v-639q0 -82 3 -130.5t7 -79t17.5 -43t25 -16t39.5 -4.5l41 -2v-6h-436zM256 997l150 383h157l-299 -383h-8z" />
<glyph unicode="&#xee;" horiz-adv-x="497" d="M27 997l180 383h137l180 -383h-8l-242 297l-239 -297h-8zM72 0v6l41 2q28 1 39.5 4.5t25 16t17.5 43t7 79t3 130.5v358q0 82 -3 130.5t-7 78.5t-17.5 42.5t-25 16t-39.5 4.5l-41 2v7h303v-639q0 -82 3 -130.5t7 -79t17.5 -43t25 -16t39.5 -4.5l41 -2v-6h-436z" />
<glyph unicode="&#xef;" horiz-adv-x="497" d="M14 1303q0 48 28 76t69 28t69.5 -28t28.5 -76q0 -47 -28 -76t-70 -29q-41 0 -69 29.5t-28 75.5zM72 0v6l41 2q28 1 39.5 4.5t25 16t17.5 43t7 79t3 130.5v358q0 82 -3 130.5t-7 78.5t-17.5 42.5t-25 16t-39.5 4.5l-41 2v7h303v-639q0 -82 3 -130.5t7 -79t17.5 -43t25 -16 t39.5 -4.5l41 -2v-6h-436zM342 1303q0 48 27.5 76t68.5 28q42 0 70.5 -28t28.5 -76q0 -46 -28.5 -75.5t-70.5 -29.5q-41 0 -68.5 29.5t-27.5 75.5z" />
<glyph unicode="&#xf0;" horiz-adv-x="1071" d="M72 463q0 137 53 245t159.5 173t250.5 65q64 0 133 -26q-49 83 -154 221l-281 -49v8l277 49l-33 43q-77 102 -116 140.5t-82 39.5l-52 2v6h305l134 -188q2 -6 10 -14l242 43v-9l-238 -43q193 -275 256 -415t63 -295q0 -211 -124 -348.5t-340 -137.5q-144 0 -250.5 66.5 t-159.5 176.5t-53 247zM270 461q0 -70 6.5 -133t24.5 -128t46.5 -112t76.5 -76.5t111 -29.5t110.5 29t76 74.5t46.5 110t24.5 127.5t6.5 134q0 129 -31.5 235.5t-93.5 214.5q-76 31 -139 31q-56 0 -99 -18.5t-71.5 -53.5t-47.5 -77.5t-29 -99.5t-14 -110t-4 -118z" />
<glyph unicode="&#xf1;" horiz-adv-x="1161" d="M49 0v6l41 2q28 1 39.5 4.5t25 16t17.5 43t7 79t3 130.5v358q0 82 -3 130.5t-7 78.5t-17.5 42.5t-25 16t-39.5 4.5l-41 2v7h299v-142q103 164 291 164q99 0 180.5 -36t133 -111.5t51.5 -178.5v-335q0 -82 3 -130.5t7 -79t17.5 -43t25 -16t39.5 -4.5l41 -2v-6h-437v6l41 2 q23 1 33.5 3t24 11t18 24.5t10 47t6.5 75t1 112.5v337q0 151 -61.5 225.5t-166.5 74.5q-165 0 -254 -150v-487q0 -82 3 -130.5t7 -79t17.5 -43t25 -16t39.5 -4.5l41 -2v-6h-436zM322 1065q15 135 52 193.5t101 58.5q33 0 132.5 -33t137.5 -33q68 0 89 64q8 26 18 76h8 q-15 -136 -51.5 -194t-99.5 -58q-32 0 -134 32.5t-139 32.5q-68 0 -88 -63q-8 -26 -18 -76h-8z" />
<glyph unicode="&#xf2;" horiz-adv-x="1069" d="M72 461q0 129 53.5 237.5t161 177t248.5 68.5q107 0 196 -40t147 -107.5t89.5 -154.5t31.5 -183t-31.5 -183t-89.5 -155t-147 -108t-196 -40q-141 0 -248.5 69.5t-161 179.5t-53.5 239zM246 1380h157l150 -383h-8zM270 459q0 -107 11.5 -187.5t40 -149t82 -104.5 t131.5 -36q63 0 110 24t76 65t47 103.5t24.5 129.5t6.5 153q0 85 -6.5 152.5t-24.5 130.5t-47 104.5t-76 66.5t-110 25q-78 0 -131.5 -35.5t-82 -103.5t-40 -149t-11.5 -189z" />
<glyph unicode="&#xf3;" horiz-adv-x="1069" d="M72 461q0 129 53.5 237.5t161 177t248.5 68.5q107 0 196 -40t147 -107.5t89.5 -154.5t31.5 -183t-31.5 -183t-89.5 -155t-147 -108t-196 -40q-141 0 -248.5 69.5t-161 179.5t-53.5 239zM270 459q0 -107 11.5 -187.5t40 -149t82 -104.5t131.5 -36q63 0 110 24t76 65 t47 103.5t24.5 129.5t6.5 153q0 85 -6.5 152.5t-24.5 130.5t-47 104.5t-76 66.5t-110 25q-78 0 -131.5 -35.5t-82 -103.5t-40 -149t-11.5 -189zM502 997l149 383h158l-299 -383h-8z" />
<glyph unicode="&#xf4;" horiz-adv-x="1069" d="M72 461q0 129 53.5 237.5t161 177t248.5 68.5q107 0 196 -40t147 -107.5t89.5 -154.5t31.5 -183t-31.5 -183t-89.5 -155t-147 -108t-196 -40q-141 0 -248.5 69.5t-161 179.5t-53.5 239zM270 459q0 -107 11.5 -187.5t40 -149t82 -104.5t131.5 -36q63 0 110 24t76 65 t47 103.5t24.5 129.5t6.5 153q0 85 -6.5 152.5t-24.5 130.5t-47 104.5t-76 66.5t-110 25q-78 0 -131.5 -35.5t-82 -103.5t-40 -149t-11.5 -189zM291 997l180 383h137l180 -383h-8l-241 297l-240 -297h-8z" />
<glyph unicode="&#xf5;" horiz-adv-x="1069" d="M72 461q0 129 53.5 237.5t161 177t248.5 68.5q107 0 196 -40t147 -107.5t89.5 -154.5t31.5 -183t-31.5 -183t-89.5 -155t-147 -108t-196 -40q-141 0 -248.5 69.5t-161 179.5t-53.5 239zM266 1065q15 135 52.5 193.5t101.5 58.5q33 0 132.5 -33t137.5 -33q67 0 88 64 q11 34 19 76h8q-15 -136 -51.5 -194t-100.5 -58q-32 0 -133.5 32.5t-138.5 32.5q-68 0 -88 -63q-11 -34 -19 -76h-8zM270 459q0 -107 11.5 -187.5t40 -149t82 -104.5t131.5 -36q63 0 110 24t76 65t47 103.5t24.5 129.5t6.5 153q0 85 -6.5 152.5t-24.5 130.5t-47 104.5 t-76 66.5t-110 25q-78 0 -131.5 -35.5t-82 -103.5t-40 -149t-11.5 -189z" />
<glyph unicode="&#xf6;" horiz-adv-x="1069" d="M72 461q0 129 53.5 237.5t161 177t248.5 68.5q107 0 196 -40t147 -107.5t89.5 -154.5t31.5 -183t-31.5 -183t-89.5 -155t-147 -108t-196 -40q-141 0 -248.5 69.5t-161 179.5t-53.5 239zM270 459q0 -107 11.5 -187.5t40 -149t82 -104.5t131.5 -36q63 0 110 24t76 65 t47 103.5t24.5 129.5t6.5 153q0 85 -6.5 152.5t-24.5 130.5t-47 104.5t-76 66.5t-110 25q-78 0 -131.5 -35.5t-82 -103.5t-40 -149t-11.5 -189zM272 1303q0 48 28 76t69 28t69.5 -28t28.5 -76q0 -47 -28 -76t-70 -29q-41 0 -69 29.5t-28 75.5zM600 1303q0 48 27.5 76 t68.5 28q42 0 70.5 -28t28.5 -76q0 -46 -28.5 -75.5t-70.5 -29.5q-41 0 -68.5 29.5t-27.5 75.5z" />
<glyph unicode="&#xf7;" d="M41 461v112h942v-112h-942zM412 209q0 43 27.5 71.5t70.5 28.5t71.5 -28.5t28.5 -71.5t-28.5 -70.5t-71.5 -27.5t-70.5 27.5t-27.5 70.5zM412 823q0 43 28 72t70 29q43 0 71.5 -29t28.5 -72t-28.5 -70.5t-71.5 -27.5t-70.5 27.5t-27.5 70.5z" />
<glyph unicode="&#xf8;" horiz-adv-x="1069" d="M72 461q0 129 53.5 237.5t161 177t248.5 68.5q146 0 256 -74l112 170h12l-114 -176q95 -65 146.5 -173t51.5 -232q0 -96 -31.5 -183t-89.5 -155t-147 -108t-196 -40q-153 0 -269 82l-112 -170h-11l115 174q-90 68 -138 174t-48 228zM270 459q0 -209 43 -318l432 660 q-63 135 -210 135q-78 0 -131.5 -35.5t-82 -103.5t-40 -149t-11.5 -189zM317 131q63 -149 218 -149q63 0 110 24t76 65t47 103.5t24.5 129.5t6.5 153q0 217 -49 331z" />
<glyph unicode="&#xf9;" horiz-adv-x="1120" d="M29 913v7h299v-619q0 -151 57 -226t152 -75q84 0 136.5 39.5t94.5 112.5v487q0 82 -3 130.5t-7 78.5t-17.5 42.5t-25 16t-39.5 4.5l-41 2v7h303v-639q0 -82 3 -130.5t7 -79t17.5 -43t25 -16t39.5 -4.5l41 -2v-6h-299v141q-21 -35 -41.5 -60t-52 -51.5t-76 -40.5 t-98.5 -14q-142 0 -244 88t-102 240v336q0 69 -1 112.5t-6 75t-9.5 47t-17 24t-22.5 10.5t-32 3zM215 1380h158l149 -383h-8z" />
<glyph unicode="&#xfa;" horiz-adv-x="1120" d="M29 913v7h299v-619q0 -151 57 -226t152 -75q84 0 136.5 39.5t94.5 112.5v487q0 82 -3 130.5t-7 78.5t-17.5 42.5t-25 16t-39.5 4.5l-41 2v7h303v-639q0 -82 3 -130.5t7 -79t17.5 -43t25 -16t39.5 -4.5l41 -2v-6h-299v141q-21 -35 -41.5 -60t-52 -51.5t-76 -40.5 t-98.5 -14q-142 0 -244 88t-102 240v336q0 69 -1 112.5t-6 75t-9.5 47t-17 24t-22.5 10.5t-32 3zM528 997l150 383h158l-299 -383h-9z" />
<glyph unicode="&#xfb;" horiz-adv-x="1120" d="M29 913v7h299v-619q0 -151 57 -226t152 -75q84 0 136.5 39.5t94.5 112.5v487q0 82 -3 130.5t-7 78.5t-17.5 42.5t-25 16t-39.5 4.5l-41 2v7h303v-639q0 -82 3 -130.5t7 -79t17.5 -43t25 -16t39.5 -4.5l41 -2v-6h-299v141q-21 -35 -41.5 -60t-52 -51.5t-76 -40.5 t-98.5 -14q-142 0 -244 88t-102 240v336q0 69 -1 112.5t-6 75t-9.5 47t-17 24t-22.5 10.5t-32 3zM274 997l181 383h137l180 -383h-8l-242 297l-239 -297h-9z" />
<glyph unicode="&#xfc;" horiz-adv-x="1120" d="M29 913v7h299v-619q0 -151 57 -226t152 -75q84 0 136.5 39.5t94.5 112.5v487q0 82 -3 130.5t-7 78.5t-17.5 42.5t-25 16t-39.5 4.5l-41 2v7h303v-639q0 -82 3 -130.5t7 -79t17.5 -43t25 -16t39.5 -4.5l41 -2v-6h-299v141q-21 -35 -41.5 -60t-52 -51.5t-76 -40.5 t-98.5 -14q-142 0 -244 88t-102 240v336q0 69 -1 112.5t-6 75t-9.5 47t-17 24t-22.5 10.5t-32 3zM242 1303q0 48 27.5 76t68.5 28t69.5 -28t28.5 -76q0 -47 -28 -76t-70 -29q-41 0 -68.5 29.5t-27.5 75.5zM569 1303q0 48 28 76t69 28t69.5 -28t28.5 -76q0 -47 -28 -76 t-70 -29q-41 0 -69 29.5t-28 75.5z" />
<glyph unicode="&#xfd;" horiz-adv-x="948" d="M2 913v7h401v-7l-36 -2q-65 -4 -66.5 -52t53.5 -165l213 -477l154 385q47 110 40.5 207.5t-71.5 101.5l-35 2v7h291v-7l-16 -2q-30 -4 -53.5 -25.5t-59 -88.5t-86.5 -195l-242 -606v-33q0 -147 17.5 -229t51 -114.5t93.5 -37.5l23 -2v-6h-377v6l22 2q60 5 93.5 37.5 t51 114.5t17.5 229v33l-311 692q-57 127 -88.5 172.5t-63.5 50.5zM516 997l150 383h157l-299 -383h-8z" />
<glyph unicode="&#xfe;" horiz-adv-x="1118" d="M49 -420l41 2q28 1 39.5 4.5t25 16t17.5 43t7 79t3 130.5v1245q0 82 -3 130.5t-7 78.5t-17.5 42.5t-25 16t-39.5 4.5l-41 2v6h303v-460q88 24 178 24q153 0 268.5 -65.5t174.5 -175t59 -244.5t-59.5 -244t-175.5 -174.5t-267 -65.5q-86 0 -178 25v-145q0 -82 3 -130.5 t7 -79t17.5 -43t25 -16t39.5 -4.5l41 -2v-6h-436v6zM352 10q98 -26 178 -26q304 0 304 475q0 477 -304 477q-86 0 -178 -27v-899z" />
<glyph unicode="&#xff;" horiz-adv-x="948" d="M2 913v7h401v-7l-36 -2q-65 -4 -66.5 -52t53.5 -165l213 -477l154 385q47 110 40.5 207.5t-71.5 101.5l-35 2v7h291v-7l-16 -2q-30 -4 -53.5 -25.5t-59 -88.5t-86.5 -195l-242 -606v-33q0 -147 17.5 -229t51 -114.5t93.5 -37.5l23 -2v-6h-377v6l22 2q60 5 93.5 37.5 t51 114.5t17.5 229v33l-311 692q-57 127 -88.5 172.5t-63.5 50.5zM260 1303q0 48 27.5 76t68.5 28q42 0 70.5 -28t28.5 -76q0 -46 -28.5 -75.5t-70.5 -29.5q-41 0 -68.5 29.5t-27.5 75.5zM588 1303q0 48 27.5 76t68.5 28t69.5 -28t28.5 -76q0 -47 -28 -76t-70 -29 q-41 0 -68.5 29.5t-27.5 75.5z" />
<glyph unicode="&#x152;" horiz-adv-x="2164" d="M92 692q0 132 45.5 254.5t129 219.5t214 155.5t287.5 58.5h1182v-370h-6l-23 69q-25 77 -59.5 131.5t-70.5 85.5t-86 48.5t-94.5 22.5t-107.5 5h-112q-24 0 -38.5 -3t-26.5 -16.5t-17.5 -30.5t-9 -57t-4.5 -83t-1 -119v-350h117q36 0 61 2.5t57.5 13t55.5 29.5t44.5 54 t35.5 85l12 45h6v-467h-6l-12 45q-17 61 -44 100.5t-64.5 57t-69 22.5t-76.5 5h-117v-388q0 -76 1 -119t4.5 -83t9 -57t17.5 -30.5t26.5 -16.5t38.5 -3h153q66 0 111.5 6.5t92.5 27.5t81.5 59.5t68.5 103t64 157.5l23 70h6v-432h-1223q-157 0 -287.5 59t-214 157.5 t-129 221.5t-45.5 254zM303 690q0 -107 14 -202.5t48.5 -185t86.5 -153.5t133 -102.5t183 -38.5h221q54 0 76.5 19.5t32.5 82.5t10 207v746q0 144 -10 207t-32.5 82.5t-76.5 19.5h-221q-102 0 -183 -38t-133 -102t-86.5 -153t-48.5 -185t-14 -204z" />
<glyph unicode="&#x153;" horiz-adv-x="1781" d="M72 461q0 129 53.5 237.5t161 177t248.5 68.5q113 0 205 -54t159 -140q60 90 153.5 142t196.5 52q211 0 311.5 -114t100.5 -308h-649v-49q0 -52 2.5 -94t10 -93t20.5 -90t36.5 -77.5t55.5 -64t79 -41t105 -15.5q269 0 328 246l10 -2q-29 -131 -125.5 -200t-253.5 -69 q-121 0 -215.5 56.5t-159.5 146.5q-64 -90 -158.5 -146.5t-211.5 -56.5q-141 0 -248.5 69.5t-161 179.5t-53.5 239zM270 459q0 -107 11.5 -187.5t40 -149t82 -104.5t131.5 -36q63 0 110 24t76 65t47 103.5t24.5 129.5t6.5 153q0 85 -6.5 152.5t-24.5 130.5t-47 104.5 t-76 66.5t-110 25q-78 0 -131.5 -35.5t-82 -103.5t-40 -149t-11.5 -189zM1012 530h456q0 56 -2.5 99t-10 93t-22.5 85.5t-38.5 66.5t-60.5 46.5t-85 15.5q-60 0 -103 -20t-68.5 -52.5t-40 -87t-19.5 -110.5t-6 -136z" />
<glyph unicode="&#x178;" horiz-adv-x="1314" d="M2 1374v6h506v-6l-43 -2q-75 -6 -75 -56q0 -49 86 -191q16 -27 48 -78l219 -357l144 219q137 209 137 322q0 65 -24 101t-91 40l-43 2v6h447v-6l-43 -2q-56 -3 -117.5 -82t-257.5 -385l-147 -227v-361q0 -145 9.5 -206.5t32 -81t76.5 -21.5l43 -2v-6h-510v6l43 2 q33 1 51 7t33.5 22t22 51.5t9.5 88t3 140.5v355l-237 364q-22 34 -50.5 78.5t-43 67.5t-35 53.5t-31.5 45t-26 33.5t-25 26.5t-23 16.5t-25 11.5t-26 3.5zM428 1575q0 48 27.5 76t68.5 28q42 0 70.5 -28t28.5 -76q0 -46 -28.5 -75.5t-70.5 -29.5q-41 0 -68.5 29.5 t-27.5 75.5zM756 1575q0 48 27.5 76t68.5 28t69.5 -28t28.5 -76q0 -47 -28 -76t-70 -29q-41 0 -68.5 29.5t-27.5 75.5z" />
<glyph unicode="&#x2c6;" d="M262 997l180 383h138l180 -383h-8l-242 297l-240 -297h-8z" />
<glyph unicode="&#x2dc;" d="M242 1065q15 135 52 193.5t101 58.5q33 0 133 -33t138 -33q67 0 88 64q8 26 18 76h8q-15 -136 -51.5 -194t-99.5 -58q-32 0 -134 32.5t-139 32.5q-68 0 -88 -63q-8 -26 -18 -76h-8z" />
<glyph unicode="&#x2000;" horiz-adv-x="881" />
<glyph unicode="&#x2001;" horiz-adv-x="1763" />
<glyph unicode="&#x2002;" horiz-adv-x="881" />
<glyph unicode="&#x2003;" horiz-adv-x="1763" />
<glyph unicode="&#x2004;" horiz-adv-x="587" />
<glyph unicode="&#x2005;" horiz-adv-x="440" />
<glyph unicode="&#x2006;" horiz-adv-x="293" />
<glyph unicode="&#x2007;" horiz-adv-x="293" />
<glyph unicode="&#x2008;" horiz-adv-x="220" />
<glyph unicode="&#x2009;" horiz-adv-x="352" />
<glyph unicode="&#x200a;" horiz-adv-x="97" />
<glyph unicode="&#x2010;" horiz-adv-x="512" d="M41 416v121h430v-121h-430z" />
<glyph unicode="&#x2011;" horiz-adv-x="512" d="M41 416v121h430v-121h-430z" />
<glyph unicode="&#x2012;" horiz-adv-x="512" d="M41 416v121h430v-121h-430z" />
<glyph unicode="&#x2013;" d="M41 467v20h942v-20h-942z" />
<glyph unicode="&#x2014;" horiz-adv-x="2048" d="M41 467v20h1966v-20h-1966z" />
<glyph unicode="&#x2018;" horiz-adv-x="512" d="M141 1171q0 45 13 83t41 72t80.5 53.5t123.5 19.5v-8q-113 0 -173 -50t-60 -139q0 -59 49 -59q14 0 31 5t28 5q44 0 69.5 -23.5t25.5 -60.5q0 -44 -25 -71t-70 -27q-54 0 -93.5 48.5t-39.5 151.5z" />
<glyph unicode="&#x2019;" horiz-adv-x="512" d="M113 952v9q113 0 173 49.5t60 138.5q0 59 -49 59q-14 0 -31 -5t-28 -5q-44 0 -69.5 23.5t-25.5 60.5q0 44 25 71t70 27q54 0 93.5 -48.5t39.5 -151.5q0 -45 -13 -83t-41 -72t-80.5 -53.5t-123.5 -19.5z" />
<glyph unicode="&#x201a;" horiz-adv-x="512" d="M115 -195q113 0 173 50t60 139q0 59 -49 59q-14 0 -31 -5t-28 -5q-44 0 -69.5 23.5t-25.5 60.5q0 44 25 71t70 27q54 0 93.5 -48.5t39.5 -151.5q0 -45 -13 -83t-41 -72t-80.5 -53.5t-123.5 -19.5v8z" />
<glyph unicode="&#x201c;" horiz-adv-x="839" d="M162 1171q0 45 13 83t41 72t80.5 53.5t123.5 19.5v-8q-113 0 -173.5 -50t-60.5 -139q0 -59 50 -59q14 0 31 5t28 5q44 0 69 -23.5t25 -60.5q0 -44 -24.5 -71t-69.5 -27q-53 0 -93 48.5t-40 151.5zM469 1171q0 45 13 83t41 72t80.5 53.5t123.5 19.5v-8q-113 0 -173 -50 t-60 -139q0 -59 49 -59q14 0 31 5t28 5q44 0 69 -23.5t25 -60.5q0 -44 -24.5 -71t-69.5 -27q-54 0 -93.5 48.5t-39.5 151.5z" />
<glyph unicode="&#x201d;" horiz-adv-x="839" d="M119 952v9q113 0 173 49.5t60 138.5q0 59 -49 59q-14 0 -31 -5t-28 -5q-44 0 -69 23.5t-25 60.5q0 44 24.5 71t69.5 27q54 0 93.5 -48.5t39.5 -151.5q0 -45 -13 -83t-41 -72t-80.5 -53.5t-123.5 -19.5zM426 952v9q113 0 173 49.5t60 138.5q0 59 -49 59q-14 0 -31 -5 t-28 -5q-44 0 -69 23.5t-25 60.5q0 44 24.5 71t69.5 27q53 0 93 -48.5t40 -151.5q0 -45 -13 -83t-41 -72t-80.5 -53.5t-123.5 -19.5z" />
<glyph unicode="&#x201e;" horiz-adv-x="839" d="M119 -193q113 0 173 50t60 139q0 59 -49 59q-14 0 -31 -5t-28 -5q-44 0 -69 23.5t-25 60.5q0 44 24.5 71t69.5 27q54 0 93.5 -48.5t39.5 -151.5q0 -45 -13 -83t-41 -72t-80.5 -53.5t-123.5 -19.5v8zM426 -193q113 0 173 50t60 139q0 59 -49 59q-14 0 -31 -5t-28 -5 q-44 0 -69 23.5t-25 60.5q0 44 24.5 71t69.5 27q53 0 93 -48.5t40 -151.5q0 -45 -13 -83t-41 -72t-80.5 -53.5t-123.5 -19.5v8z" />
<glyph unicode="&#x2022;" horiz-adv-x="700" d="M160 475q0 84 52.5 138.5t135.5 54.5t138 -55t55 -138t-54.5 -135.5t-138.5 -52.5q-83 0 -135.5 52.5t-52.5 135.5z" />
<glyph unicode="&#x2026;" horiz-adv-x="2048" d="M246 115q0 49 28.5 79.5t73.5 30.5q46 0 75.5 -30.5t29.5 -79.5q0 -51 -29 -83t-74 -32q-46 0 -75 31.5t-29 83.5zM922 115q0 49 28.5 79.5t73.5 30.5q46 0 75 -30.5t29 -79.5q0 -51 -29 -83t-73 -32q-46 0 -75 31.5t-29 83.5zM1597 115q0 49 29 79.5t74 30.5 q46 0 75 -30.5t29 -79.5q0 -51 -29 -83t-73 -32q-46 0 -75.5 31.5t-29.5 83.5z" />
<glyph unicode="&#x202f;" horiz-adv-x="352" />
<glyph unicode="&#x2039;" horiz-adv-x="512" d="M61 477q201 182 340 379h9q-46 -71 -91.5 -184.5t-58.5 -194.5q13 -81 58.5 -194.5t91.5 -184.5h-9q-139 197 -340 379z" />
<glyph unicode="&#x203a;" horiz-adv-x="512" d="M102 98q46 71 91.5 184.5t58.5 194.5q-13 81 -58.5 194.5t-91.5 184.5h9q139 -197 340 -379q-201 -182 -340 -379h-9z" />
<glyph unicode="&#x205f;" horiz-adv-x="440" />
<glyph unicode="&#x20ac;" horiz-adv-x="1251" d="M102 424v8h144q-2 23 -2 72q0 75 14 141h-156v8h158q36 171 154.5 279t312.5 108q130 0 231 -61.5t101 -136.5q0 -42 -29 -69.5t-74 -27.5q-40 0 -68 28t-28 69q0 34 20.5 69t20.5 45q0 27 -48 51.5t-126 24.5q-66 0 -116.5 -29.5t-82.5 -83t-50.5 -119t-26.5 -147.5h405 v-8h-405q-7 -82 -7 -141q0 -47 2 -72h410v-8h-410q4 -70 14.5 -131t32 -119.5t52 -100t77.5 -66.5t105 -25q80 0 140.5 25t60.5 52q0 11 -23.5 48t-23.5 73q0 44 30 73.5t72 29.5q49 0 79 -29t30 -74q0 -50 -54 -98.5t-139.5 -78.5t-171.5 -30q-109 0 -197.5 36.5 t-145.5 99.5t-91.5 142.5t-44.5 172.5h-146z" />
<glyph unicode="&#x2122;" d="M20 -205v533h697v-287h-185v102h-327v-163h799v-185h-984zM20 389v553h185v-184h799v-185h-799v-184h-185zM20 1004v430h185v-246h307v205h184v-205h308v-184h-984z" />
<glyph unicode="&#x25fc;" horiz-adv-x="921" d="M0 0v922h922v-922h-922z" />
</font>
</defs>
</svg>
